<?xml version="1.0" encoding="utf-8"?>
<!-- Generator: Adobe Illustrator 17.0.0, SVG Export Plug-In . SVG Version: 6.00 Build 0)  -->
<!DOCTYPE svg PUBLIC "-//W3C//DTD SVG 1.1//EN" "http://www.w3.org/Graphics/SVG/1.1/DTD/svg11.dtd">
<svg version="1.1" id="Layer_1" xmlns="http://www.w3.org/2000/svg" xmlns:xlink="http://www.w3.org/1999/xlink" x="0px" y="0px"
	 width="18px" height="14.338px" viewBox="0 0 18 14.338" enable-background="new 0 0 18 14.338" xml:space="preserve">
<path fill="#09A3E6" d="M17.641,1.699c-0.647,0.288-1.346,0.482-2.076,0.569c0.746-0.446,1.318-1.157,1.59-2.001
	c-0.697,0.414-1.475,0.716-2.299,0.877C14.193,0.442,13.255,0,12.214,0c-1.999,0-3.619,1.624-3.619,3.62
	c0,0.284,0.031,0.559,0.094,0.823c-3.008-0.149-5.676-1.59-7.461-3.781C0.917,1.198,0.74,1.819,0.74,2.482
	c0,1.256,0.64,2.365,1.607,3.012c-0.592-0.02-1.15-0.182-1.638-0.451c0,0.015,0,0.03,0,0.044c0,1.755,1.249,3.217,2.902,3.547
	C3.308,8.721,2.987,8.766,2.658,8.766c-0.232,0-0.459-0.023-0.682-0.066c0.461,1.438,1.797,2.484,3.382,2.512
	c-1.238,0.973-2.802,1.551-4.494,1.551c-0.293,0-0.58-0.018-0.864-0.051c1.604,1.025,3.505,1.627,5.548,1.627
	c6.658,0,10.298-5.518,10.298-10.297c0-0.157-0.003-0.312-0.011-0.468C16.542,3.062,17.156,2.425,17.641,1.699z"/>
</svg>
