<?xml version="1.0" encoding="utf-8"?>
<!-- Generator: Adobe Illustrator 17.0.0, SVG Export Plug-In . SVG Version: 6.00 Build 0)  -->
<!DOCTYPE svg PUBLIC "-//W3C//DTD SVG 1.1//EN" "http://www.w3.org/Graphics/SVG/1.1/DTD/svg11.dtd">
<svg version="1.1" id="Layer_2" xmlns="http://www.w3.org/2000/svg" xmlns:xlink="http://www.w3.org/1999/xlink" x="0px" y="0px"
	 width="90px" height="90px" viewBox="0 0 90 90" enable-background="new 0 0 90 90" xml:space="preserve">
<g>
	<g>
		<path fill-rule="evenodd" clip-rule="evenodd" fill="#003C56" d="M39.829,30.247c-0.057-0.056,0.052-0.568,0.06-0.661
			c0.144-1.655,0.219-3.195-0.204-4.817c-0.223-0.856-0.478-1.711-0.77-2.546c-0.249-0.712-0.565-1.421-0.939-2.076
			c-1.352-2.366-3.594-4.096-6.118-5.058c-2.292-0.873-5.984-1.255-8.671-0.616l-2.084,0.635c1.173,1.232,3.284,3.357,3.284,3.357
			l4.131,4.06c0,0,1.394,1.69,1.228,2.691c-0.156,0.942-0.486,1.832-1.013,2.63c-0.928,1.404-2.444,2.953-4.035,3.58
			c-0.506,0.199-1.063,0.194-1.597,0.143c-0.319-0.031-1.139-0.006-1.378-0.246c-2.808-2.808-5.617-5.617-8.425-8.425
			c-3.317,9.062,4.749,21.303,14.7,18.464c9.739,9.799,19.481,19.601,29.22,29.399c3.181,2.507,8.667,2.834,11.652-0.179
			c2.635-2.66,2.659-8.112,0.359-11.114C59.43,49.728,49.628,39.986,39.829,30.247z M64.21,69.147
			c-5.504,1.439-7.469-6.215-1.793-8.097C68.153,60.572,68.89,67.923,64.21,69.147z M68.263,15.276
			c-0.832-0.536-1.741-0.906-2.709-1.116c-0.842-0.182-1.712-0.189-2.558-0.041c-1.245,0.217-2.437,0.766-3.401,1.579
			c-1.349,1.137-2.487,2.525-3.72,3.782c-1.262,1.285-2.564,2.531-3.826,3.817c-0.623,0.635-7.556,7.669-7.558,7.667
			c0.777,0.777,1.554,1.554,2.33,2.33c-0.005-0.005,3.369-3.403,3.676-3.714c2.2-2.23,4.395-4.466,6.601-6.691
			c1.096-1.106,2.171-2.241,3.299-3.315c0.693-0.66,1.279-1.568,2.102-2.072c0.608-0.372,1.438-0.005,1.446,0.757
			c0.007,0.642-0.541,1.096-0.997,1.461c-0.59,0.471-1.082,0.997-1.607,1.54c-2.156,2.229-4.42,4.367-6.624,6.549
			c-2.211,2.189-4.428,4.373-6.641,6.56c0.836,0.896,1.673,1.793,2.51,2.689c-0.019-0.02,3.373-3.371,3.681-3.681
			c2.196-2.21,4.425-4.387,6.612-6.606c1.095-1.111,2.183-2.234,3.301-3.321c0.671-0.652,1.284-1.424,2.003-2.018
			c0.514-0.425,1.129-0.413,1.433,0.252c0.452,0.987-0.723,1.757-1.326,2.359c-0.594,0.594-1.188,1.187-1.781,1.781
			c-2.112,2.112-4.224,4.224-6.336,6.336c-2.111,2.111-4.221,4.221-6.332,6.332c0.777,0.717,1.554,1.434,2.33,2.151
			c0.015,0.013,3.85-3.933,4.196-4.285c2.512-2.554,5.043-5.095,7.517-7.685c1.232-1.29,2.532-2.514,3.764-3.804
			c1.029-1.078,1.571-2.202,1.732-3.684C71.639,18.786,70.232,16.544,68.263,15.276z M23.516,58.391
			c-1.434,0.299-2.868,0.598-4.302,0.896c-2.33,3.645-4.661,7.291-6.991,10.935c0.896,0.896,1.793,1.793,2.689,2.689
			c3.645-2.33,7.291-4.661,10.935-6.991c0.299-1.434,0.598-2.868,0.896-4.302c2.987-2.987,5.976-5.976,8.963-8.963
			c-1.135-1.075-2.271-2.151-3.406-3.227C29.373,52.415,26.444,55.404,23.516,58.391z"/>
	</g>
</g>
</svg>
