<?xml version="1.0" encoding="utf-8"?>
<!-- Generator: Adobe Illustrator 17.0.0, SVG Export Plug-In . SVG Version: 6.00 Build 0)  -->
<!DOCTYPE svg PUBLIC "-//W3C//DTD SVG 1.1//EN" "http://www.w3.org/Graphics/SVG/1.1/DTD/svg11.dtd">
<svg version="1.1" id="Layer_1" xmlns="http://www.w3.org/2000/svg" xmlns:xlink="http://www.w3.org/1999/xlink" x="0px" y="0px"
	 width="449.308px" height="221.231px" viewBox="0 0 449.308 221.231" enable-background="new 0 0 449.308 221.231"
	 xml:space="preserve">
<g>
	<path fill="#FFFFFF" d="M51.633,134.719l-5.59-15.447H21.55l-5.334,15.447H5.122l23.17-61.19h11.265l23.255,61.19H51.633z
		 M34.736,87.099c-0.342-0.996-0.626-2.46-0.854-4.395h-0.256c-0.17,1.622-0.469,3.087-0.896,4.395l-8.363,23.597h18.775
		L34.736,87.099z"/>
	<path fill="#FFFFFF" d="M77.389,126.783h23.426v7.937H63.436v-3.499l23.768-32.259h-21.25v-7.936h34.777v3.755L77.389,126.783z"/>
	<path fill="#FFFFFF" d="M135.513,134.719v-6.571h-0.171c-3.016,5.093-7.411,7.638-13.185,7.638c-10.44,0-15.66-6.087-15.66-18.263
		V91.025h9.985v25.261c0,7.624,3.03,11.436,9.089,11.436c2.958,0,5.355-1.052,7.19-3.157c1.835-2.105,2.752-4.865,2.752-8.278
		V91.025h9.942v43.695H135.513z"/>
	<path fill="#FFFFFF" d="M182.371,100.626c-1.621-0.996-3.527-1.494-5.718-1.494c-2.845,0-5.156,1.224-6.934,3.67
		c-1.778,2.447-2.667,5.632-2.667,9.558v22.359h-9.857V91.025h9.857v8.492h0.17c2.105-6.173,5.831-9.26,11.18-9.26
		c1.735,0,3.058,0.199,3.968,0.597V100.626z"/>
	<path fill="#FFFFFF" d="M194.154,115.773c0.483,8.137,4.865,12.204,13.143,12.204c4.779,0,9.145-1.394,13.1-4.182v8.321
		c-4.068,2.446-9.231,3.669-15.489,3.669c-6.629,0-11.763-1.983-15.404-5.952c-3.642-3.969-5.462-9.479-5.462-16.535
		c0-7.168,2.034-12.851,6.102-17.047c4.067-4.196,8.961-6.294,14.679-6.294c6.059,0,10.753,1.864,14.081,5.59
		c3.329,3.727,4.993,8.833,4.993,15.319v4.906H194.154z M214.081,108.349c0-7.111-3.087-10.667-9.259-10.667
		c-2.618,0-4.915,0.967-6.892,2.901c-1.978,1.935-3.236,4.523-3.776,7.766H214.081z"/>
</g>
<g>
	<path fill="#FFFFFF" d="M292.11,131.553c-4.95,2.049-10.113,3.072-15.489,3.072c-8.363,0-15.185-2.809-20.461-8.427
		c-5.277-5.618-7.915-12.951-7.915-21.997c0-9.928,2.858-17.886,8.576-23.874c5.719-5.988,12.986-8.982,21.805-8.982
		c4.694,0,9.189,0.754,13.484,2.262v4.48c-4.296-1.934-8.818-2.901-13.569-2.901c-7.681,0-13.925,2.603-18.732,7.809
		c-4.808,5.206-7.211,12.133-7.211,20.781c0,8.336,2.297,14.913,6.891,19.735c4.594,4.821,10.419,7.232,17.474,7.232
		c5.633,0,10.682-1.095,15.148-3.285V131.553z"/>
	<path fill="#FFFFFF" d="M307.138,78.855c-0.854,0-1.607-0.312-2.262-0.938c-0.654-0.626-0.981-1.422-0.981-2.39
		c0-0.939,0.334-1.7,1.003-2.283c0.668-0.583,1.415-0.875,2.24-0.875c0.882,0,1.657,0.285,2.326,0.854
		c0.668,0.569,1.002,1.337,1.002,2.304c0,0.911-0.327,1.693-0.982,2.347C308.83,78.528,308.048,78.855,307.138,78.855z
		 M305.218,133.559V89.864h3.926v43.695H305.218z"/>
	<path fill="#FFFFFF" d="M344.1,93.961c-1.31-0.938-2.846-1.408-4.608-1.408c-3.442,0-6.33,1.778-8.663,5.333
		c-2.332,3.557-3.499,8.605-3.499,15.148v20.525h-3.84V89.864h3.84v9.686h0.171c0.996-3.328,2.574-5.916,4.736-7.766
		c2.162-1.849,4.665-2.774,7.511-2.774c1.621,0,3.072,0.256,4.353,0.768V93.961z"/>
	<path fill="#FFFFFF" d="M379.226,131.639c-3.243,1.99-7.112,2.986-11.606,2.986c-5.946,0-10.739-2.04-14.381-6.123
		c-3.642-4.082-5.461-9.423-5.461-16.022c0-6.941,2.048-12.624,6.145-17.047c4.096-4.423,9.358-6.635,15.788-6.635
		c3.328,0,6.557,0.683,9.686,2.048v4.438c-3.129-1.934-6.557-2.901-10.283-2.901c-5.12,0-9.275,1.842-12.46,5.526
		c-3.186,3.684-4.779,8.456-4.779,14.316c0,5.661,1.458,10.213,4.374,13.654c2.916,3.442,6.764,5.163,11.542,5.163
		c4.381,0,8.193-1.166,11.436-3.499V131.639z"/>
	<path fill="#FFFFFF" d="M390.072,133.559V68.87h3.926v64.689H390.072z"/>
	<path fill="#FFFFFF" d="M409.281,111.882c0,6.003,1.387,10.696,4.16,14.081c2.774,3.386,6.578,5.078,11.415,5.078
		c4.893,0,9.672-1.807,14.337-5.419v4.182c-4.523,3.215-9.572,4.821-15.148,4.821c-5.633,0-10.184-2.02-13.655-6.059
		c-3.471-4.039-5.205-9.743-5.205-17.111c0-6.372,1.814-11.741,5.44-16.108c3.627-4.367,8.342-6.55,14.145-6.55
		c5.434,0,9.602,1.906,12.503,5.718c2.901,3.812,4.353,9.019,4.353,15.618v1.749H409.281z M437.529,108.298
		c-0.171-5.035-1.38-8.946-3.627-11.734c-2.247-2.788-5.349-4.182-9.302-4.182c-4.097,0-7.489,1.373-10.178,4.118
		c-2.688,2.746-4.346,6.678-4.971,11.798H437.529z"/>
</g>
<path fill="#FFFFFF" d="M211.237,199.642c-30.921,0-54.299-20.455-68.71-45.513c-7.894,0-12.868,0-21.239,0
	c16.047,37.127,46.611,62.609,89.631,62.609c43.023,0,81.257-25.482,97.311-62.609c-7.19,0-13.147,0-21.121,0
	C272.693,179.187,242.16,199.642,211.237,199.642z"/>
<path fill="#FFFFFF" d="M214.758,3.119c-44.688,0-83.476,31.11-98.436,70.553c7.676,0,12.243,0,19.918,0
	c13.672-27.462,45.062-51.795,77.763-51.795c21.836,0,50.674,15.894,65.561,29.672c10.283,0,13.612,0,22.877,0
	C283.448,25.301,249.639,3.119,214.758,3.119z"/>
</svg>
