<?xml version="1.0" encoding="utf-8"?>
<!-- Generator: Adobe Illustrator 17.0.0, SVG Export Plug-In . SVG Version: 6.00 Build 0)  -->
<!DOCTYPE svg PUBLIC "-//W3C//DTD SVG 1.1//EN" "http://www.w3.org/Graphics/SVG/1.1/DTD/svg11.dtd">
<svg version="1.1" id="Layer_2" xmlns="http://www.w3.org/2000/svg" xmlns:xlink="http://www.w3.org/1999/xlink" x="0px" y="0px"
	 width="90px" height="72px" viewBox="0 0 90 72" enable-background="new 0 0 90 72" xml:space="preserve">
<path fill="#003C56" d="M77.911,39.232c0-5.147-4.173-9.32-9.32-9.32c-0.194,0-0.375,0.045-0.566,0.057
	c0.13-0.745,0.228-1.503,0.228-2.286c0-7.236-5.805-13.102-12.967-13.102c-2.951,0-5.64,1.035-7.82,2.713
	c-2.184-4.624-6.853-7.845-12.306-7.845c-7.534,0-13.642,6.108-13.642,13.642c0,1.071,0.153,2.1,0.386,3.099
	c-0.633-0.11-1.275-0.195-1.939-0.195c-6.229,0-11.278,5.049-11.278,11.278c0,5.865,4.493,10.628,10.216,11.171
	c0.065,0.004,0.121,0.038,0.187,0.038h0.188c0.232,0.014,0.452,0.069,0.687,0.069s0.455-0.055,0.687-0.069h47.251
	c0.231,0.017,0.452,0.069,0.687,0.069c0.235,0,0.456-0.052,0.687-0.069h0.12c0.043,0,0.078-0.023,0.12-0.024
	C74.223,47.986,77.911,44.061,77.911,39.232z"/>
</svg>
