<?xml version="1.0" encoding="utf-8"?>
<!-- Generator: Adobe Illustrator 17.0.0, SVG Export Plug-In . SVG Version: 6.00 Build 0)  -->
<!DOCTYPE svg PUBLIC "-//W3C//DTD SVG 1.1//EN" "http://www.w3.org/Graphics/SVG/1.1/DTD/svg11.dtd">
<svg version="1.1" id="Layer_1" xmlns="http://www.w3.org/2000/svg" xmlns:xlink="http://www.w3.org/1999/xlink" x="0px" y="0px"
	 width="405px" height="165.5px" viewBox="0 0 405 165.5" enable-background="new 0 0 405 165.5" xml:space="preserve">
<g id="Layer_1_1_">
</g>
<g id="Layer_2">
	<g>
		<polygon fill="none" stroke="#666666" stroke-width="1.1447" stroke-miterlimit="10" points="212.918,53.446 214.698,37.928 
			213.808,32.968 213.808,30.933 216.606,31.696 214.762,19.995 214.762,16.179 215.335,11.091 214.762,2.951 217.242,4.859 
			225.51,4.732 229.707,7.912 235.049,8.802 239.119,10.837 242.299,15.161 244.334,24.446 247.513,29.788 251.584,31.442 
			257.434,31.569 261.886,30.551 267.482,28.198 272.061,28.198 279.947,29.915 286.815,30.551 292.793,28.198 307.802,23.81 
			315.306,23.683 320.012,23.937 332.731,21.775 374.449,19.486 376.103,23.302 377.247,26.227 380.936,27.244 386.787,31.187 
			385.006,41.362 381.318,54.972 381.318,58.533 377.629,61.586 376.612,67.309 375.976,75.45 379.028,77.866 381.699,77.866 
			382.462,79.52 381.318,81.555 382.081,85.752 380.3,91.603 379.41,97.835 383.353,156.851 295.21,158.123 207.957,155.834 
			204.523,155.325 202.615,153.544 201.471,149.474 201.471,143.751 200.962,137.391 198.418,129.378 197.782,123.909 
			198.672,120.984 200.962,115.387 201.089,112.08 202.361,109.028 202.615,98.471 206.94,90.84 208.339,87.405 208.593,78.502 
			211.137,67.309 		"/>
		<g>
			<path fill="#00A4E0" d="M18.708,77.215l-2.296,8.368c-0.099,0.345-0.148,0.622-0.148,0.831c0,0.404,0.158,0.729,0.475,0.978
				c0.316,0.246,0.868,0.37,1.655,0.37h1.307l-0.4,1.62H8.99l0.443-1.62h0.738c1.462,0,2.389-0.725,2.783-2.175l6.055-22.034
				c0.056-0.178,0.084-0.362,0.084-0.555c0-0.429-0.159-0.766-0.476-1.01s-0.842-0.366-1.575-0.366h-1.543l0.465-1.553l7.152-0.399
				l-1.078,4.505c1.198-1.79,2.346-3.029,3.445-3.717c1.1-0.688,2.269-1.032,3.509-1.032c1.748,0,3.238,0.732,4.471,2.197
				c1.233,1.465,1.85,3.373,1.85,5.726c0,2.366-0.575,4.696-1.724,6.989c-1.15,2.293-2.588,4.058-4.315,5.292
				c-1.727,1.235-3.444,1.854-5.15,1.854C21.515,81.482,19.71,80.06,18.708,77.215z M27.835,61.445c-1.2,0-2.449,0.64-3.747,1.92
				c-1.298,1.281-2.339,3.124-3.12,5.529c-0.782,2.405-1.181,4.399-1.199,5.98c0,1.434,0.356,2.56,1.069,3.38s1.662,1.23,2.847,1.23
				c1.171,0,2.304-0.474,3.398-1.421c1.094-0.946,2.106-2.6,3.038-4.959c0.931-2.359,1.397-4.678,1.397-6.956
				c0-1.45-0.349-2.597-1.048-3.439C29.772,61.866,28.893,61.445,27.835,61.445z"/>
			<path fill="#00A4E0" d="M42.939,80.839l-3.504,0.288l3.583-14.246c0.387-1.523,0.581-2.566,0.581-3.128
				c0-0.71-0.214-1.246-0.643-1.609c-0.429-0.362-1.128-0.543-2.098-0.543h-0.927l0.442-1.531l6.959-0.399l-1.982,8.965
				c1.265-3.062,2.246-5.119,2.942-6.169s1.452-1.819,2.265-2.308s1.613-0.732,2.397-0.732c0.944,0,1.732,0.311,2.364,0.932
				s0.948,1.391,0.948,2.308c0,0.858-0.221,1.55-0.664,2.075s-0.987,0.787-1.634,0.787c-0.52,0-0.963-0.191-1.328-0.576
				c-0.366-0.385-0.548-0.851-0.548-1.398c0-0.222,0.07-0.524,0.211-0.909c0.084-0.237,0.126-0.43,0.126-0.578
				c0-0.207-0.05-0.362-0.148-0.466s-0.253-0.155-0.464-0.155c-0.38,0-0.815,0.214-1.308,0.643c-0.928,0.844-1.842,2.33-2.742,4.461
				c-1.631,3.86-2.784,6.989-3.459,9.386L42.939,80.839z"/>
			<path fill="#00A4E0" d="M68.725,59.425c2.164,0,4.001,0.847,5.513,2.541c1.51,1.694,2.266,3.843,2.266,6.446
				c0,2.249-0.538,4.427-1.613,6.535s-2.456,3.725-4.142,4.849c-1.687,1.124-3.436,1.687-5.249,1.687
				c-2.165,0-4.016-0.862-5.555-2.585c-1.539-1.724-2.308-3.88-2.308-6.469c0-2.159,0.548-4.294,1.644-6.401
				c1.096-2.108,2.498-3.736,4.206-4.882C65.194,59.999,66.94,59.425,68.725,59.425z M68.809,60.934
				c-1.054,0-2.119,0.47-3.194,1.409c-1.075,0.94-2.045,2.585-2.909,4.937c-0.864,2.353-1.296,4.705-1.296,7.057
				c0,1.819,0.373,3.218,1.117,4.194c0.745,0.976,1.693,1.464,2.846,1.464c1.096,0,2.164-0.458,3.204-1.375
				c1.04-0.918,2.002-2.593,2.888-5.026c0.885-2.434,1.328-4.818,1.328-7.156c0-1.73-0.376-3.08-1.127-4.05
				C70.914,61.419,69.961,60.934,68.809,60.934z"/>
			<path fill="#09A3E6" d="M88.406,59.669l-3.421,13.582c-0.45,1.508-0.674,2.735-0.674,3.685c0,0.694,0.178,1.24,0.536,1.64
				c0.357,0.399,0.836,0.6,1.437,0.6c1.215,0,2.727-0.967,4.535-2.9s3.227-4.769,4.255-8.507l2.07-7.699h3.375l-4.378,16.34
				c-0.196,0.722-0.293,1.353-0.293,1.893c0,0.402,0.083,0.703,0.251,0.903c0.168,0.201,0.412,0.301,0.733,0.301
				c1.312,0,2.981-1.923,5.007-5.769l1.247,0.443c-1.125,2.56-2.351,4.416-3.677,5.569c-1.326,1.154-2.588,1.731-3.784,1.731
				c-0.866,0-1.55-0.271-2.055-0.811c-0.505-0.539-0.757-1.283-0.757-2.229c0-0.784,0.132-1.873,0.396-3.268
				c-1.747,2.411-3.279,4.065-4.597,4.962c-1.317,0.896-2.566,1.346-3.744,1.346c-1.207,0-2.164-0.366-2.871-1.099
				c-0.708-0.732-1.061-1.689-1.061-2.874c0-0.976,0.25-2.44,0.748-4.394l2.348-9.363c0.07-0.234,0.105-0.461,0.105-0.681
				c0-0.396-0.168-0.71-0.506-0.945c-0.45-0.292-1.096-0.439-1.939-0.439h-1.159l0.421-1.62L88.406,59.669z"/>
			<path fill="#00A4E0" d="M130.441,47.598l-7.653,28.401c-0.225,0.814-0.337,1.51-0.337,2.087c0,0.341,0.088,0.607,0.264,0.8
				c0.176,0.192,0.418,0.289,0.728,0.289c1.252,0,2.905-1.909,4.959-5.726l1.203,0.621c-1.322,2.693-2.609,4.602-3.861,5.726
				c-1.251,1.124-2.384,1.687-3.396,1.687c-0.914,0-1.617-0.344-2.109-1.032c-0.493-0.688-0.767-1.72-0.823-3.096
				c-1.953,2.752-4.123,4.128-6.51,4.128c-1.194,0-2.321-0.333-3.381-0.999c-1.061-0.665-1.886-1.608-2.476-2.829
				s-0.885-2.585-0.885-4.094c0-2.293,0.58-4.615,1.741-6.968c1.161-2.352,2.577-4.135,4.248-5.348
				c1.671-1.213,3.359-1.82,5.066-1.82c1.174,0,2.23,0.309,3.167,0.926c0.937,0.618,1.755,1.551,2.454,2.801l3.114-11.76
				c0.042-0.165,0.063-0.314,0.063-0.45c0-0.389-0.145-0.7-0.436-0.933s-0.74-0.349-1.347-0.349h-2.155l0.415-1.664L130.441,47.598z
				 M117.767,61.312c-1.288,0-2.54,0.606-3.758,1.819c-1.217,1.214-2.239,3.226-3.064,6.036c-0.63,2.13-0.944,3.942-0.944,5.437
				c0,1.509,0.353,2.699,1.06,3.572s1.592,1.31,2.656,1.31c1.246,0,2.488-0.63,3.726-1.889s2.253-3.15,3.044-5.676
				c0.791-2.525,1.186-4.53,1.186-6.016c0-1.405-0.364-2.522-1.092-3.351C119.852,61.726,118.915,61.312,117.767,61.312z"/>
			<path fill="#00A4E0" d="M136.47,47.998l7.795-0.399l-7.184,28.442c-0.268,0.968-0.401,1.671-0.401,2.109
				c0,0.424,0.07,0.733,0.211,0.93c0.141,0.197,0.329,0.295,0.564,0.295c1.218,0,2.848-1.915,4.889-5.747l1.173,0.666
				c-2.339,4.793-4.72,7.189-7.145,7.189c-0.861,0-1.557-0.304-2.088-0.91c-0.531-0.606-0.796-1.449-0.796-2.529
				c0-0.828,0.188-2.005,0.567-3.528l5.786-22.944c0.07-0.299,0.105-0.531,0.105-0.696c0-0.359-0.155-0.636-0.464-0.831
				c-0.408-0.254-1.054-0.382-1.939-0.382h-1.518L136.47,47.998z"/>
			<path fill="#00A4E0" d="M158.2,75.558c1.458-2.337,2.6-4.601,3.427-6.79c0.533-1.376,0.799-2.552,0.799-3.528
				c0-0.414-0.099-1.072-0.295-1.975c-0.155-0.725-0.232-1.272-0.232-1.643c0-0.636,0.179-1.161,0.538-1.575
				c0.358-0.414,0.79-0.622,1.296-0.622c0.534,0,0.97,0.204,1.307,0.61c0.337,0.407,0.506,0.973,0.506,1.697
				c0,0.71-0.253,1.813-0.759,3.307c-0.688,2.041-1.63,4.164-2.825,6.368l-4.954,9.142c-1.11,2.057-2.39,3.936-3.837,5.637
				c-1.054,1.228-2.132,2.122-3.236,2.685c-1.103,0.562-2.083,0.844-2.94,0.844c-1.068,0-1.957-0.311-2.667-0.933
				c-0.709-0.621-1.065-1.368-1.065-2.241c0-0.71,0.218-1.312,0.654-1.808s0.941-0.744,1.518-0.744c0.534,0,0.994,0.203,1.381,0.61
				c0.386,0.407,0.58,0.877,0.58,1.409l-0.042,0.776l-0.021,0.267c0,0.251,0.084,0.451,0.253,0.599
				c0.169,0.163,0.401,0.244,0.697,0.244c0.788,0,1.681-0.466,2.681-1.398c1.547-1.436,3.088-3.545,4.623-6.327l-1.372-7.542
				c-0.772-4.246-1.568-7.175-2.387-8.787c-0.479-0.916-0.922-1.375-1.33-1.375c-0.745,0-1.561,1.354-2.447,4.061l-1.287-0.555
				c0.802-2.367,1.73-4.127,2.785-5.282c0.76-0.843,1.547-1.265,2.363-1.265c0.844,0,1.512,0.392,2.005,1.176
				c0.717,1.109,1.57,3.713,2.559,7.81L158.2,75.558z"/>
			<path fill="#00A4E0" d="M25.249,119.645l0.843,0.674c-1.08,1.516-2.165,2.595-3.255,3.24c-1.091,0.645-2.249,0.967-3.474,0.967
				c-1.619,0-2.965-0.612-4.039-1.837s-1.61-2.825-1.61-4.802c0-1.858,0.458-3.672,1.375-5.441c0.916-1.769,2.094-3.139,3.533-4.109
				s2.906-1.455,4.402-1.455c1.259,0,2.249,0.34,2.968,1.021c0.72,0.681,1.08,1.565,1.08,2.653c0,0.841-0.186,1.495-0.557,1.962
				c-0.371,0.468-0.832,0.701-1.383,0.701c-0.472,0-0.875-0.169-1.206-0.506c-0.332-0.337-0.498-0.742-0.498-1.216
				c0-0.805,0.405-1.337,1.214-1.598c0.427-0.143,0.641-0.349,0.641-0.621s-0.188-0.548-0.565-0.826
				c-0.377-0.277-0.857-0.417-1.442-0.417c-0.967,0-1.937,0.391-2.909,1.172c-0.973,0.781-1.799,2.012-2.479,3.692
				s-1.02,3.468-1.02,5.361c0,1.609,0.309,2.808,0.927,3.595s1.439,1.18,2.462,1.18C21.899,123.034,23.563,121.904,25.249,119.645z"
				/>
			<path fill="#00A4E0" d="M32.329,124.011l-2.803,0.231l2.866-11.397c0.309-1.219,0.464-2.053,0.464-2.503
				c0-0.567-0.172-0.996-0.515-1.287c-0.343-0.289-0.902-0.435-1.678-0.435h-0.742l0.354-1.225l5.567-0.319l-1.585,7.171
				c1.012-2.449,1.796-4.094,2.353-4.935c0.557-0.84,1.161-1.456,1.812-1.846c0.651-0.391,1.291-0.586,1.918-0.586
				c0.755,0,1.386,0.248,1.892,0.745c0.505,0.497,0.758,1.112,0.758,1.847c0,0.687-0.177,1.239-0.531,1.659
				c-0.354,0.421-0.79,0.631-1.307,0.631c-0.416,0-0.77-0.154-1.062-0.462s-0.438-0.681-0.438-1.118c0-0.178,0.056-0.42,0.169-0.729
				c0.067-0.188,0.101-0.343,0.101-0.461c0-0.166-0.04-0.29-0.118-0.373s-0.203-0.124-0.371-0.124c-0.304,0-0.652,0.172-1.046,0.515
				c-0.742,0.675-1.473,1.864-2.193,3.568c-1.305,3.089-2.227,5.592-2.767,7.509L32.329,124.011z"/>
			<path fill="#00A4E0" d="M55.116,121.225c-0.674,1.089-1.456,1.911-2.344,2.467c-0.888,0.557-1.765,0.834-2.631,0.834
				c-1.675,0-3.092-0.642-4.25-1.926c-1.158-1.284-1.737-2.914-1.737-4.891c0-1.799,0.453-3.56,1.357-5.281s2.065-3.076,3.482-4.064
				c1.416-0.988,2.793-1.482,4.131-1.482c1.08,0,2.032,0.334,2.858,1.003s1.385,1.554,1.678,2.654l0.978-3.143l2.648-0.319
				l-3.691,13.527c-0.102,0.366-0.152,0.733-0.152,1.1c0,0.332,0.064,0.586,0.194,0.764c0.129,0.178,0.284,0.266,0.464,0.266
				c0.337,0,0.719-0.242,1.147-0.728c0.832-0.935,1.613-2.189,2.344-3.764l0.978,0.462c-1.766,3.882-3.572,5.822-5.417,5.822
				c-0.596,0-1.091-0.239-1.485-0.719s-0.59-1.098-0.59-1.854L55.116,121.225z M53.343,108.283c-0.888,0-1.785,0.376-2.689,1.127
				c-0.905,0.752-1.703,2.003-2.394,3.755c-0.691,1.751-1.037,3.556-1.037,5.414c0,1.468,0.287,2.554,0.86,3.257
				c0.573,0.705,1.389,1.057,2.446,1.057c0.944,0,1.824-0.349,2.64-1.047s1.623-2.067,2.421-4.108s1.195-3.855,1.192-5.441
				c0-1.137-0.343-2.09-1.029-2.858C55.068,108.668,54.265,108.283,53.343,108.283z"/>
			<path fill="#00A4E0" d="M71.562,107.396H75.1l-0.367,1.491h-3.547l-3.313,13.471c-0.752,3.123-1.499,5.663-2.24,7.618
				c-0.65,0.189-1.291,0.414-1.92,0.675c-0.765,0.308-1.248,0.461-1.45,0.461c-0.168,0-0.253-0.089-0.253-0.266
				c0-0.131,0.163-0.568,0.489-1.313c0.854-1.977,1.518-3.69,1.99-5.14s1.018-3.428,1.637-5.934l2.358-9.572h-2.946l0.384-1.491
				h2.868c0.687-2.355,1.467-4.382,2.343-6.08s1.697-2.822,2.464-3.373c0.767-0.55,1.547-0.825,2.341-0.825
				c0.718,0,1.289,0.213,1.713,0.639c0.424,0.427,0.636,0.959,0.636,1.598c0,0.568-0.136,1.027-0.407,1.376
				c-0.271,0.35-0.624,0.523-1.06,0.523c-0.351,0-0.64-0.121-0.869-0.363c-0.229-0.243-0.412-0.695-0.55-1.358
				c-0.106-0.509-0.309-0.764-0.606-0.764c-0.393,0-0.744,0.33-1.052,0.988C73.138,101.085,72.411,103.632,71.562,107.396z"/>
			<path fill="#00A4E0" d="M81.454,101.661h2.745l-1.479,5.734h3.055l-0.43,1.491h-2.966l-2.752,10.93
				c-0.156,0.619-0.234,1.161-0.234,1.626c0,0.442,0.088,0.776,0.265,1.004c0.176,0.227,0.397,0.34,0.662,0.34
				c1.137,0,2.528-1.532,4.173-4.598l0.927,0.55c-1.916,3.858-3.959,5.787-6.13,5.787c-0.808,0-1.445-0.263-1.91-0.79
				c-0.465-0.526-0.698-1.209-0.698-2.05c0-0.722,0.1-1.48,0.301-2.276l2.65-10.522h-2.848l0.418-1.491h2.805L81.454,101.661z"/>
			<path fill="#00A4E0" d="M90.801,117.55c-0.057,0.556-0.084,1.023-0.084,1.402c0,1.302,0.301,2.299,0.902,2.991
				c0.601,0.691,1.419,1.038,2.454,1.038c0.81,0,1.607-0.222,2.395-0.666c0.787-0.443,1.771-1.334,2.951-2.671l0.776,0.745
				c-2.125,2.758-4.374,4.136-6.746,4.136c-1.619,0-2.985-0.639-4.098-1.917s-1.669-2.911-1.669-4.899
				c0-1.751,0.466-3.471,1.4-5.157c0.933-1.686,2.178-3.053,3.735-4.101c1.557-1.047,3.01-1.57,4.359-1.57
				c1.158,0,2.105,0.352,2.841,1.056s1.105,1.565,1.105,2.583c0,0.864-0.29,1.725-0.869,2.583s-1.512,1.624-2.799,2.299
				C96.166,116.076,93.948,116.792,90.801,117.55z M91.037,116.396c2.147-0.498,3.676-1.014,4.587-1.548
				c0.911-0.533,1.599-1.197,2.066-1.992c0.466-0.795,0.7-1.631,0.7-2.509c0-0.699-0.172-1.245-0.515-1.637
				c-0.343-0.391-0.812-0.587-1.408-0.587c-1.079,0-2.122,0.649-3.128,1.948C92.332,111.37,91.565,113.479,91.037,116.396z"/>
			<path fill="#00A4E0" d="M122.787,97.419l-6.123,22.721c-0.18,0.651-0.27,1.208-0.27,1.67c0,0.272,0.07,0.485,0.211,0.64
				c0.141,0.153,0.334,0.23,0.582,0.23c1.002,0,2.325-1.526,3.968-4.58l0.962,0.497c-1.058,2.154-2.087,3.681-3.088,4.58
				s-1.907,1.349-2.717,1.349c-0.731,0-1.294-0.274-1.688-0.825c-0.394-0.55-0.613-1.376-0.658-2.477
				c-1.562,2.201-3.298,3.302-5.208,3.302c-0.955,0-1.856-0.266-2.705-0.799c-0.849-0.532-1.509-1.286-1.98-2.263
				c-0.472-0.977-0.708-2.068-0.708-3.275c0-1.834,0.464-3.692,1.393-5.574c0.929-1.882,2.062-3.308,3.398-4.278
				c1.336-0.97,2.688-1.455,4.052-1.455c0.939,0,1.785,0.247,2.534,0.741c0.75,0.493,1.404,1.24,1.963,2.24l2.491-9.408
				c0.034-0.132,0.051-0.251,0.051-0.359c0-0.312-0.116-0.561-0.349-0.746s-0.592-0.279-1.078-0.279h-1.724l0.332-1.331
				L122.787,97.419z M112.647,108.39c-1.03,0-2.033,0.485-3.006,1.455c-0.974,0.971-1.792,2.58-2.452,4.829
				c-0.504,1.704-0.756,3.153-0.756,4.349c0,1.207,0.283,2.16,0.848,2.858s1.273,1.047,2.125,1.047c0.996,0,1.99-0.503,2.981-1.51
				c0.991-1.008,1.802-2.521,2.435-4.542c0.632-2.02,0.949-3.624,0.949-4.812c0-1.125-0.291-2.018-0.874-2.681
				C114.315,108.721,113.565,108.39,112.647,108.39z"/>
			<path fill="#00A4E0" d="M140.938,107.076l-3.4,13.85c-0.101,0.365-0.152,0.681-0.152,0.948c0,0.304,0.066,0.532,0.198,0.685
				c0.131,0.151,0.307,0.228,0.527,0.228c0.417,0,0.909-0.272,1.476-0.816c0.937-0.911,1.846-2.189,2.725-3.835l0.92,0.551
				c-0.837,1.882-1.835,3.325-2.994,4.331c-1.158,1.006-2.202,1.509-3.131,1.509c-0.62,0-1.147-0.251-1.583-0.754
				c-0.436-0.503-0.653-1.163-0.653-1.979c0-0.805,0.113-1.656,0.339-2.557l2.285-9.07c0.045-0.154,0.067-0.302,0.067-0.444
				c0-0.319-0.129-0.568-0.388-0.745c-0.349-0.237-0.872-0.355-1.568-0.355h-1.062l0.337-1.225L140.938,107.076z M141.005,97.827
				c0.517,0,0.95,0.192,1.298,0.577s0.523,0.86,0.523,1.429c0,0.557-0.174,1.021-0.523,1.394s-0.775,0.56-1.282,0.56
				c-0.528,0-0.975-0.189-1.34-0.568c-0.366-0.379-0.548-0.846-0.548-1.402c0-0.568,0.18-1.041,0.54-1.42
				S140.476,97.827,141.005,97.827z"/>
			<path fill="#00A4E0" d="M152.653,107.076l-1.45,5.769c2.488-3.857,4.813-5.787,6.977-5.787c0.833,0,1.515,0.297,2.047,0.889
				c0.532,0.593,0.798,1.401,0.798,2.425c0,0.863-0.191,1.887-0.573,3.072l-1.477,6.002l-0.359,1.496
				c-0.067,0.345-0.101,0.628-0.101,0.85c0,0.259,0.069,0.478,0.208,0.656s0.303,0.268,0.49,0.268c0.504,0,1.148-0.391,1.934-1.171
				c0.785-0.781,1.488-1.959,2.109-3.533l1.09,0.373c-0.751,1.941-1.694,3.417-2.827,4.429c-1.134,1.012-2.191,1.518-3.174,1.518
				c-0.682,0-1.252-0.26-1.708-0.78s-0.685-1.189-0.685-2.006c0-0.687,0.105-1.438,0.315-2.255l1.616-6.444
				c0.225-0.71,0.337-1.402,0.337-2.076c0-0.568-0.118-1.018-0.354-1.35c-0.237-0.331-0.517-0.497-0.839-0.497
				c-0.73,0-1.908,0.87-3.531,2.609c-1.624,1.74-2.854,4.131-3.692,7.172l-1.153,5.308l-2.756,0.143l3.478-13.812
				c0.056-0.213,0.084-0.42,0.084-0.621c0-0.354-0.107-0.621-0.32-0.799c-0.292-0.225-0.703-0.337-1.231-0.337h-1.5l0.32-1.189
				L152.653,107.076z"/>
		</g>
		<g>
			<path fill="#666666" d="M225.322,87.477c0.451,0.031,0.97,0.241,1.042,0.935c0.085,0.821-0.916,3.171-1.953,5.657
				c-0.515,1.276-1.348,3.331-2.564,3.596c-1.168,0.255-1.746-0.523-1.89-1.912c-0.287-2.779,2.456-10.419,3.35-13.327
				c-1.266-0.692-2.406-1.606-2.608-3.564c-0.379-3.664,5.187-6.622,7.146-7.889l6.366-14.954
				c-8.496,2.049-14.842,7.569-16.302,7.887c-0.292,0.064-0.785,0.107-0.844-0.461c-0.156-1.516,2.163-6.996,2.798-8.555
				c0.713-1.77,2.12-2.594,3.431-3.398c4.07-2.503,8.482-4.112,12.861-5.068c12.068-2.635,15.948,1.684,16.758,9.516
				c1.391,13.452-10.233,25.679-26.04,26.804L225.322,87.477z M232.139,69.197c1.801-0.393,3.704-1.713,3.828-0.513
				c0.131,1.263-3.973,2.482-4.68,3.346l-0.855,2.318c1.866,0.239,3.533,0.004,5.077-0.462c9.465-2.777,14.809-13.179,13.862-17.041
				c-0.933-3.736-10.16-2.497-12.398-2.008c0.128,1.716-0.079,2.601-0.672,4.086L232.139,69.197z"/>
			<path fill="#666666" d="M270.446,75.384c-1.608,3.607-3.364,5.361-6.506,6.048c-1.56,2.797-3.484,5.047-6.196,5.639
				c-2.239,0.487-4.606-1.966-5.304-7.014c-0.519-4.171,0.785-7.312,2.947-10.242c2.071-2.965,5.014-5.151,7.623-5.891
				c0.942-0.263,2.42-0.015,2.576,1.494c0.087,0.838-0.395,1.286-0.834,1.725c1.338,0.164,1.717,1.282,1.891,2.958
				c0.254,2.458-0.405,4.602-0.997,6.96c1.94,0.033,2.927-2.352,4.128-3.93L270.446,75.384z M257.044,75.625
				c-0.82,1.435-1.413,3.794-1.233,5.526c0.168,1.621,1.037,1.944,2.114,1.709c1.421-0.31,2.215-1.569,3.084-2.958
				c-0.394-0.828-0.684-1.507-0.783-2.457c-0.3-2.906,1.359-6.867,1.176-6.942C260.053,71.941,258.168,73.723,257.044,75.625z"/>
			<path fill="#666666" d="M272.555,71.095c-1.189,3.401-2.847,5.25-4.45,8.056l-0.426-2.421c0.998-1.417,1.757-3.012,2.42-4.699
				c-0.916,0.085-1.22-0.305-1.342-1.479c-0.416-4.023,3.559-9.004,4.593-9.23c0.43-0.093,0.821,0.278,0.873,0.781
				c0.058,0.559-0.019,1.09-0.139,1.63c3.971-1.609,6.27-2.797,6.77-2.221c0.756,0.92,1.15,1.749,1.34,2.735
				c0.179,1.732-0.552,2.749-1.433,4.026c-1.104,1.669-2.93,4.868-2.7,7.103c0.093,0.894,0.851,1.414,1.496,1.273
				c1.851-0.405,4.188-4.628,5.464-6.335l0.516,2.002c-1.388,2.759-5.697,10.043-8.151,10.578c-1.808,0.395-3.153-1.54-3.372-3.663
				c-0.393-3.8,1.54-7.249,2.985-10.307l-0.098-0.093L272.555,71.095z"/>
			<path fill="#666666" d="M298.306,54.047c-1.475,5.749-1.606,7.892-6.382,8.534c-1.21,2.778-3.19,7.896-2.844,11.249
				c0.127,1.229,0.504,1.888,1.494,1.673c1.378-0.301,2.754-2.316,6.804-7.428l0.47,2.412c-2.228,3.572-6.26,10.565-9.919,11.364
				c-1.679,0.366-2.868-0.916-3.099-3.151c-0.19-1.844,0.15-4.09,0.542-5.832l-0.098-0.093l-1.959,2.771l-0.693-2.02
				c2.317-3.134,4.39-6.5,5.62-10.368c-2.627,0.573-1.831,0.171-4.067,1.116l0.37-1.109c1.817-5.425,2.068-6.394,6.651-7.623
				c1.055-2.572,1.731-5.406,4.227-5.951c0.56-0.122,1.395-0.133,1.488,0.761c0.103,1.006-0.954,3.122-1.305,3.998L298.306,54.047z"
				/>
			<path fill="#666666" d="M311.18,66.604c-2.039,3.701-5.502,10.228-9.204,11.037c-3.142,0.686-4.241-3.131-4.582-6.427
				c-0.607-5.867,0.678-12.603,3.014-17.684c3.159-6.918,6.712-13.007,8.089-13.307c0.732-0.16,1.043,1.143,1.075,1.879
				c0.247,5.373-0.364,10.535-8.493,24.308c-0.289,1.034-0.256,2.627,0.098,3.921c0.521,1.2,1.239,2.186,2.401,1.933
				c2.369-0.517,5.313-4.817,6.827-7.204L311.18,66.604z M301.494,61.063c2.676-4.354,4.79-10.301,5.236-13.655
				c-1.971,1.802-3.905,7.366-5.333,13.562L301.494,61.063z"/>
			<path fill="#666666" d="M317.884,69.711c-0.731,1.017-3.187,4.523-4.177,4.739c-1.205,0.263-4.084-2.879-4.47-5.765
				c-0.895-6.947,9.56-16.543,14.536-17.8c1.975-0.488,3.006,1.4,3.076,2.071c0.069,0.671-0.992,1.473-1.362,1.726
				c0.864,0.268,1.358,0.789,1.485,2.017c0.184,1.788-3.156,6.517-2.885,9.143c0.098,0.949,0.784,1.2,1.473,1.05
				c1.808-0.395,3.967-3.78,5.651-5.805l0.557,1.992c-1.567,3.142-6.718,10.38-8.828,10.84c-1.421,0.311-2.204-0.889-2.373-2.509
				c-0.184-1.788,0.543-4.976,0.946-6.606l-0.098-0.094L317.884,69.711z M312.524,69.396c0.072,0.27,0.348,1.238,0.976,0.929
				c0.838-0.411,2.19-0.535,9.559-13.571l-0.097-0.093C313.137,62.977,312.241,66.658,312.524,69.396z"/>
			<path fill="#666666" d="M351.227,55.003l0.599,2.383c-2.01,3.124-5.734,10.964-8.877,11.65c-1.636,0.357-2.596-1.261-2.791-3.16
				c-0.347-3.353,1.597-7.548,2.709-10.419l-0.098-0.093c-2.248,2.948-4.143,6.332-5.746,9.996
				c-0.535,1.203-1.846,4.288-3.008,4.542c-1.894,0.414-2.731-3.003-2.971-4.893c-0.528-3.826,1.601-10.062,3.815-13.345
				c0.496-0.737,0.878-0.877,1.61-1.036c2.595-0.453,2.46,0.377,2.495,0.712c0.225,2.179-4.616,9.007-4.477,10.348
				c0.034,0.335,0.279,0.567,0.537,0.511c0.301-0.066,0.637-0.653,0.781-0.97c2.854-6.451,10.065-15.053,11.314-15.326
				c0.172-0.038,0.459,0.186,0.799,0.912c0.344,0.781,0.707,1.731,0.958,2.875c0.225,2.179-4.631,7.582-4.233,11.437
				c0.051,0.503,0.448,0.93,0.879,0.836c1.033-0.225,2.726-2.594,3.414-3.601L351.227,55.003z"/>
			<path fill="#666666" d="M367.461,45.116c-1.121,3.216-2.811,7.299-2.442,10.875c0.092,0.894,0.332,2.784,1.279,2.577
				c1.464-0.319,4.957-5.71,6.213-7.184l0.492,1.778c-1.723,3.347-5.551,10.182-8.693,10.868c-1.636,0.358-2.512-1.737-2.697-3.525
				c-0.144-1.397-0.123-2.887-0.095-4.321c-1.334,2.005-4.777,8.299-6.714,8.722c-1.937,0.423-3.698-4.678-3.9-6.634
				c-0.682-6.592,7.308-14.051,10.938-15.129c0.898-0.253,1.324,0.453,1.969,1.169c1.093-3.495,3.685-15.888,6.828-16.574
				c0.86-0.188,1.492,0.817,1.597,1.822c0.173,1.676-0.752,4.221-1.297,5.768L367.461,45.116z M354.814,58.619
				c0.009,0.512,0.27,0.912,0.755,0.921c0.534,0.055,6.771-8.164,7.12-11.61C355.441,52.769,354.691,54.875,354.814,58.619z"/>
		</g>
		<g>
			<path fill="#666666" d="M266.594,97.634c1.808-1.266,3.309-1.349,4.439-0.644c1.14,0.772,1.919,2.399,2.363,4.736
				c2.43,12.93-6.085,33.758-17.148,36.762c-3.82,1.015-8.687-0.889-10.826-10.889c-2.954-13.945,10.406-34.505,19.413-38.91
				c2.189-1.1,5.38,2.853,5.557,3.898c0.231,1.372-1.309,2.425-1.977,2.956c-0.705,0.611-1.292,1.325-1.879,2.039L266.594,97.634z
				 M254.954,116.406c-0.626,0.178-0.835-1.063-0.982-1.637c-2.084,4.424-3.856,10.402-2.954,15.758
				c0.385,2.286,1.438,4.04,3.27,3.521c2.7-0.767,6.432-4.701,8.061-7.627c5.206-9.28,7.529-18.289,6.87-23.099
				c-0.216-1.581-1.166-3.023-2.419-2.667c-4.242,1.205-9.163,8.282-10.648,13.563C255.951,114.822,255.533,116.242,254.954,116.406
				z"/>
			<path fill="#666666" d="M277.604,118.944c-0.958,3.602-2.496,5.613-3.912,8.618l-0.598-2.494
				c0.904-1.528,1.557-3.227,2.105-5.018c-0.916,0.14-1.249-0.25-1.453-1.464c-0.701-4.16,2.949-9.556,3.972-9.846
				c0.427-0.121,0.846,0.245,0.933,0.765c0.098,0.578,0.057,1.135-0.026,1.703c3.882-1.889,6.111-3.249,6.655-2.676
				c0.825,0.916,1.279,1.756,1.539,2.771c0.302,1.792-0.363,2.888-1.158,4.265c-0.994,1.795-2.607,5.22-2.218,7.53
				c0.156,0.926,0.955,1.425,1.594,1.243c1.834-0.521,3.888-5.04,5.053-6.884l0.658,2.054c-1.202,2.945-5.027,10.751-7.458,11.441
				c-1.792,0.508-3.28-1.43-3.649-3.626c-0.662-3.929,1.04-7.621,2.279-10.879l-0.105-0.092L277.604,118.944z"/>
			<path fill="#666666" d="M305.944,115.016c-1.91,4.841-5.688,11.604-9.91,12.803c-3.114,0.884-5.196-2.46-5.923-6.249
				c-1.445-7.521,3.435-17.02,8.989-18.536c1.365-0.387,3.149-0.409,3.539,1.902c0.476,2.831-0.894,7.7-8.469,13.665l0.129,1.296
				c0.242,2.232,1.776,2.583,3.141,2.196c3.028-0.859,5.9-6.095,7.752-9.163L305.944,115.016z M299.088,107.215
				c-0.068-0.405-0.339-0.69-0.618-0.49c-2.006,1.356-4.013,4.832-4.521,8.972C297.41,112.898,299.297,108.185,299.088,107.215z"/>
			<path fill="#666666" d="M316.772,112.184l-0.105-0.091c-1.146,2.747-4.738,9.277-7.084,9.943
				c-2.388,0.678-3.909-3.31-4.337-5.852c-1.275-7.57,6.991-16.334,10.207-17.671c0.587-0.227,2.29-0.468,2.503,0.803
				c0.176,1.04-0.541,2.091-1.008,2.769l-4.259,4.962c-2.356,2.727-5.24,5.242-4.146,9.351c0.121,0.45,0.396,0.492,0.78,0.383
				c1.223-0.165,3.592-2.291,4.814-5.12l3.416-8.114c0.319-0.757,0.665-1.884,1.347-2.078c0.854-0.242,1.952,1.505,2.118,2.487
				c0.146,0.867-0.227,2.365-0.399,3.201l-1.837,8.997l0.105,0.091l5.422-8.139l0.622,2.367l-7.461,11.685
				c-2.854,10.92-5.984,15.684-7.647,16.155c-0.597,0.17-1.088-0.357-1.215-1.107c-0.701-4.16,4.556-13.282,6.513-16.258
				L316.772,112.184z"/>
			<path fill="#666666" d="M341.629,104.826c-1.364,3.838-3.007,5.758-6.121,6.642c-1.372,2.993-3.151,5.435-5.839,6.198
				c-2.217,0.63-4.77-1.794-5.826-7.004c-0.816-4.309,0.276-7.647,2.246-10.81c1.875-3.196,4.683-5.628,7.255-6.54
				c0.929-0.323,2.434-0.146,2.696,1.414c0.147,0.867-0.307,1.359-0.718,1.839c1.358,0.099,1.817,1.24,2.11,2.974
				c0.428,2.542-0.085,4.807-0.515,7.29c1.955-0.07,2.779-2.605,3.877-4.31L341.629,104.826z M328.165,105.802
				c-0.725,1.537-1.156,4.021-0.854,5.813c0.282,1.675,1.18,1.966,2.245,1.663c1.407-0.4,2.118-1.752,2.895-3.244
				c-0.454-0.84-0.794-1.53-0.959-2.513c-0.505-3.004,0.886-7.214,0.696-7.281C330.932,101.808,329.162,103.764,328.165,105.802z"/>
			<path fill="#666666" d="M360.609,96.531l0.77,2.446c-1.803,3.358-5,11.712-8.112,12.596c-1.622,0.46-2.7-1.171-3.031-3.135
				c-0.583-3.467,1.077-7.935,1.995-10.981l-0.105-0.091c-2.055,3.187-3.724,6.81-5.079,10.706
				c-0.455,1.279-1.556,4.559-2.708,4.886c-1.877,0.533-2.958-2.975-3.332-4.927c-0.799-3.951,0.904-10.55,2.902-14.083
				c0.447-0.793,0.821-0.959,1.546-1.165c2.578-0.611,2.501,0.259,2.56,0.604c0.38,2.254-4.012,9.616-3.779,11.002
				c0.059,0.347,0.322,0.575,0.577,0.502c0.298-0.085,0.595-0.713,0.717-1.051c2.419-6.862,9.07-16.197,10.307-16.548
				c0.171-0.048,0.475,0.168,0.867,0.904c0.403,0.794,0.834,1.761,1.166,2.938c0.379,2.254-4.127,8.134-3.455,12.121
				c0.088,0.52,0.516,0.944,0.943,0.822c1.023-0.29,2.56-2.845,3.181-3.93L360.609,96.531z"/>
		</g>
	</g>
</g>
</svg>
