<svg width="155" height="100" xmlns="http://www.w3.org/2000/svg">
 <g>
  <title>Layer 1</title>
  <g id="svg_1">
   <g id="svg_2">
    <g id="svg_3">
     <path id="svg_4" d="m120.54201,56.814l0,1.307l-23.937,0c-0.104,-7.447 5.854,-12.02 11.185,-16.723c5.43501,-4.638 10.76601,-9.537 10.76601,-16.526c0,-6.925 -4.233,-10.647 -9.87801,-10.647c-7.421,0 -10.399,5.879 -10.399,14.044l-1.045,0c0.052,-9.733 3.919,-15.351 11.444,-15.351c6.062,0 10.923,3.984 10.923,11.954c0,7.381 -5.278,12.477 -10.661,17.18c-5.487,4.703 -10.766,9.01501 -11.288,14.76301l22.89,0l0,-0.00101z" fill="#FFFFFF"/>
     <path id="svg_5" d="m137.315,58.905c-10.19,0 -13.431,-11.889 -13.431,-22.994c0,-11.104 3.23999,-22.993 13.431,-22.993c10.19099,0 13.43199,11.889 13.43199,22.993c0,11.106 -3.23999,22.994 -13.43199,22.994zm0,-44.68c-9.72101,0 -12.386,11.823 -12.386,21.687c0,9.864 2.66499,21.688 12.386,21.688s12.38699,-11.823 12.38699,-21.688c0,-9.864 -2.666,-21.687 -12.38699,-21.687z" fill="#FFFFFF"/>
    </g>
    <g id="svg_6">
     <path id="svg_7" d="m22.431,53.604c0,0.951 -0.311,1.729 -0.932,2.33s-1.407,0.902 -2.358,0.902l-11.737,0c-0.952,0 -1.729,-0.30099 -2.33,-0.902s-0.902,-1.379 -0.902,-2.33l0,-39.111c0,-0.951 0.301,-1.728 0.902,-2.33c0.602,-0.602 1.378,-0.902 2.33,-0.902l11.736,0c0.951,0 1.737,0.301 2.358,0.902c0.621,0.603 0.932,1.379 0.932,2.33l0,10.601l-4.077,0l0,-10.251l-10.133,0l0,38.412l10.134,0l0,-11.212l4.077,0l0,11.561z" stroke-miterlimit="10" stroke-width="1.7" stroke="#F1F2F2" fill="#57BCEB"/>
     <path id="svg_8" d="m47.271,53.604c0,0.951 -0.296,1.729 -0.888,2.33c-0.593,0.60201 -1.364,0.902 -2.315,0.902l-11.473,0c-0.952,0 -1.733,-0.30099 -2.345,-0.902s-0.917,-1.379 -0.917,-2.33l0,-11.561l4.048,0l0,11.212l9.843,0l0,-10.862l-12.58,-15.203c-0.874,-1.048 -1.311,-2.203 -1.311,-3.466l0,-9.231c0,-0.951 0.306,-1.728 0.917,-2.33c0.611,-0.602 1.393,-0.902 2.345,-0.902l11.474,0c0.951,0 1.723,0.301 2.315,0.902c0.592,0.603 0.888,1.379 0.888,2.33l0,10.601l-4.048,0l0,-10.251l-9.843,0l0,9.61l12.639,15.202c0.835,1.01 1.252,2.146 1.252,3.407l0,10.542l-0.001,0z" stroke-miterlimit="10" stroke-width="1.7" stroke="#F1F2F2" fill="#57BCEB"/>
     <path id="svg_9" d="m72.87,53.604c0,0.951 -0.301,1.729 -0.902,2.33c-0.603,0.60201 -1.37901,0.902 -2.33,0.902l-11.969,0c-0.952,0 -1.729,-0.30099 -2.33,-0.902s-0.902,-1.379 -0.902,-2.33l0,-39.111c0,-0.951 0.301,-1.728 0.902,-2.33c0.60201,-0.602 1.37801,-0.902 2.33,-0.902l11.969,0c0.951,0 1.728,0.301 2.33,0.902c0.602,0.603 0.902,1.379 0.902,2.33l0,10.601l-4.077,0l0,-10.251l-10.309,0l0,38.412l10.309,0l0,-15.755l-4.863,0l0,-3.495l8.94,0l0,19.599z" stroke-miterlimit="10" stroke-width="1.7" stroke="#F1F2F2" fill="#57BCEB"/>
    </g>
    <g id="svg_10">
     <path id="svg_11" d="m80.75,2.854c3.808,0 4.964,2.38 4.964,7.547l0,11.083c0,5.508 0.884,9.18 4.896,11.763l0,1.36c-2.924,0.476 -4.896,5.848 -4.896,11.354l0,11.219c0,5.168 -1.156,7.412 -4.964,7.412l-3.399,0l0,-1.36l3.264,0c2.72,0 3.74001,-1.7 3.74001,-7.275l0,-11.15c0,-4.012 1.42799,-9.52 4.895,-11.015c-2.991,-1.429 -4.895,-5.984 -4.895,-11.151l0,-11.016c0,-6.052 -1.15601,-7.411 -3.74001,-7.411l-3.264,0l0,-1.36l3.399,0z" fill="#808285"/>
    </g>
   </g>
   <g id="svg_12">
    <g id="svg_13">
     <path id="svg_14" d="m40.375,95.873l-1.627,0l0,-12.609l-0.708,0l0,-0.058l1.022,-5.521l1.313,0l0,18.188z" stroke-miterlimit="10" stroke-width="0.85" stroke="#C8CACB" fill="#C8CACB"/>
     <path id="svg_15" d="m50.532,94.583c0,0.38 -0.118,0.689 -0.354,0.93s-0.544,0.36 -0.924,0.36l-4.544,0c-0.38,0 -0.693,-0.12 -0.941,-0.36s-0.371,-0.55 -0.371,-0.93l0,-4.021l1.615,0l0,3.881l3.904,0l0,-6.729l-4.312,0c-0.38,0 -0.688,-0.12 -0.924,-0.36s-0.354,-0.55 -0.354,-0.92999l0,-7.44901c0,-0.379 0.118,-0.689 0.354,-0.93c0.236,-0.239 0.544,-0.36 0.924,-0.36l4.648,0c0.38,0 0.688,0.121 0.924,0.36c0.236,0.24001 0.354,0.551 0.354,0.93l0,15.608l0.001,0zm-1.615,-8.274l0,-7.193l-3.975,0l0,7.193l3.975,0z" stroke-miterlimit="10" stroke-width="0.85" stroke="#C8CACB" fill="#C8CACB"/>
     <path id="svg_16" d="m60.619,94.583c0,0.38 -0.118,0.689 -0.354,0.93s-0.544,0.36 -0.924,0.36l-4.54401,0c-0.38,0 -0.693,-0.12 -0.94099,-0.36s-0.371,-0.55 -0.371,-0.93l0,-4.021l1.615,0l0,3.881l3.904,0l0,-6.729l-4.312,0c-0.38,0 -0.688,-0.12 -0.924,-0.36s-0.354,-0.55 -0.354,-0.92999l0,-7.44901c0,-0.379 0.118,-0.689 0.354,-0.93c0.236,-0.239 0.544,-0.36 0.924,-0.36l4.64799,0c0.38,0 0.688,0.121 0.924,0.36c0.236,0.24001 0.354,0.551 0.354,0.93l0,15.608l0.00101,0zm-1.616,-8.274l0,-7.193l-3.975,0l0,7.193l3.975,0z" stroke-miterlimit="10" stroke-width="0.85" stroke="#C8CACB" fill="#C8CACB"/>
     <path id="svg_17" d="m70.833,94.583c0,0.38 -0.12,0.689 -0.36,0.93s-0.55,0.36 -0.93,0.36l-4.683,0c-0.379,0 -0.689,-0.12 -0.93,-0.36s-0.359,-0.55 -0.359,-0.93l0,-4.613l1.615,0l0,4.474l4.021,0l0,-5.566l-3.207,-2.406l0,-0.36l3.184,-2.371l0,-4.625l-3.975,0l0,4.091l-1.615,0l0,-4.23c0,-0.379 0.12,-0.689 0.36,-0.93c0.24,-0.239 0.55,-0.36 0.93,-0.36l4.637,0c0.38,0 0.689,0.121 0.92999,0.36c0.24001,0.24001 0.36,0.551 0.36,0.93l0,4.428c0,0.581 -0.23199,1.034 -0.697,1.36l-2.161,1.521l2.185,1.522c0.465,0.318 0.697,0.779 0.697,1.384l0,5.391l-0.002,0z" stroke-miterlimit="10" stroke-width="0.85" stroke="#C8CACB" fill="#C8CACB"/>
     <path id="svg_18" d="m86.86,89.539c0,0.667 -0.318,1 -0.953,1c-0.388,0 -0.79,-0.077 -1.209,-0.232l-4.381,-1.674l0,1.836l-1.522,0l0,-2.429c0,-0.666 0.317,-0.999 0.953,-0.999c0.395,0 0.798,0.081 1.208,0.244l4.382,1.66199l0,-1.837l1.522,0l0,2.429z" stroke-miterlimit="10" stroke-width="0.85" stroke="#C8CACB" fill="#C8CACB"/>
     <path id="svg_19" d="m101.711,95.873l-7.217,0l0,-0.86l5.56699,-11.562l0,-4.335l-3.708,0l0,4.091l-1.627,0l0,-4.23c0,-0.379 0.12,-0.689 0.36,-0.93c0.24,-0.239 0.551,-0.36 0.93,-0.36l4.382,0c0.379,0 0.689,0.121 0.93,0.36c0.239,0.24001 0.36,0.551 0.36,0.93l0,3.858c0,0.465 -0.144,0.996 -0.431,1.592l-4.811,10.018l5.264,0l0,1.428l0.001,0z" stroke-miterlimit="10" stroke-width="0.85" stroke="#C8CACB" fill="#C8CACB"/>
     <path id="svg_20" d="m111.66,94.583c0,0.38 -0.124,0.689 -0.372,0.93s-0.562,0.36 -0.941,0.36l-4.823,0c-0.37901,0 -0.689,-0.12 -0.93,-0.36s-0.359,-0.55 -0.359,-0.93l0,-15.607c0,-0.379 0.119,-0.689 0.359,-0.93c0.24,-0.239 0.55099,-0.36 0.93,-0.36l4.823,0c0.38,0 0.693,0.121 0.941,0.36c0.248,0.24001 0.372,0.551 0.372,0.93l0,15.607zm-1.616,-0.14l0,-15.328l-4.195,0l0,15.328l4.195,0z" stroke-miterlimit="10" stroke-width="0.85" stroke="#C8CACB" fill="#C8CACB"/>
     <path id="svg_21" d="m116.377,95.873l-1.627,0l0,-12.609l-0.709,0l0,-0.058l1.022,-5.521l1.313,0l0,18.188l0.001,0z" stroke-miterlimit="10" stroke-width="0.85" stroke="#C8CACB" fill="#C8CACB"/>
     <path id="svg_22" d="m126.662,94.583c0,0.38 -0.12,0.689 -0.36,0.93s-0.55,0.36 -0.93001,0.36l-4.68399,0c-0.379,0 -0.68901,-0.12 -0.93001,-0.36s-0.35899,-0.55 -0.35899,-0.93l0,-4.613l1.61501,0l0,4.474l4.021,0l0,-5.566l-3.207,-2.405l0,-0.36l3.18399,-2.371l0,-4.625l-3.97499,0l0,4.091l-1.61501,0l0,-4.23c0,-0.379 0.12001,-0.689 0.36,-0.93c0.24001,-0.239 0.55,-0.35999 0.93001,-0.35999l4.63699,0c0.38,0 0.689,0.12099 0.93001,0.35999c0.23999,0.24001 0.36,0.551 0.36,0.93l0,4.428c0,0.581 -0.23201,1.034 -0.69701,1.36l-2.161,1.521l2.185,1.522c0.465,0.318 0.69699,0.779 0.69699,1.384l0,5.39l-0.00099,0z" stroke-miterlimit="10" stroke-width="0.85" stroke="#C8CACB" fill="#C8CACB"/>
    </g>
   </g>
  </g>
 </g>
</svg>