<?xml version="1.0" encoding="utf-8"?>
<!-- Generator: Adobe Illustrator 17.0.0, SVG Export Plug-In . SVG Version: 6.00 Build 0)  -->
<!DOCTYPE svg PUBLIC "-//W3C//DTD SVG 1.1//EN" "http://www.w3.org/Graphics/SVG/1.1/DTD/svg11.dtd">
<svg version="1.1" id="Layer_1" xmlns="http://www.w3.org/2000/svg" xmlns:xlink="http://www.w3.org/1999/xlink" x="0px" y="0px"
	 width="206.4px" height="207.2px" viewBox="0 0 206.4 207.2" enable-background="new 0 0 206.4 207.2" xml:space="preserve">
<g>
	<circle fill="#191818" stroke="#938B8D" stroke-width="6.8" stroke-miterlimit="10" cx="102.817" cy="102.634" r="94.634"/>
	<g>
		<g>
			<path fill="#C7C9CB" stroke="#C7C9CB" stroke-width="0.85" stroke-miterlimit="10" d="M90.258,50.846h-1.627V38.237h-0.709
				v-0.058l1.022-5.521h1.313V50.846z"/>
			<path fill="#C7C9CB" stroke="#C7C9CB" stroke-width="0.85" stroke-miterlimit="10" d="M100.415,49.556
				c0,0.38-0.118,0.689-0.354,0.93s-0.544,0.36-0.924,0.36h-4.544c-0.38,0-0.693-0.12-0.941-0.36s-0.371-0.55-0.371-0.93v-4.021
				h1.615v3.881h3.904v-6.729h-4.312c-0.38,0-0.688-0.12-0.924-0.36s-0.354-0.55-0.354-0.93v-7.449c0-0.379,0.118-0.689,0.354-0.93
				c0.236-0.239,0.544-0.36,0.924-0.36h4.648c0.38,0,0.688,0.121,0.924,0.36c0.236,0.24,0.354,0.551,0.354,0.93V49.556z
				 M98.799,41.282v-7.193h-3.975v7.193H98.799z"/>
			<path fill="#C7C9CB" stroke="#C7C9CB" stroke-width="0.85" stroke-miterlimit="10" d="M110.503,49.556
				c0,0.38-0.118,0.689-0.354,0.93s-0.544,0.36-0.924,0.36h-4.544c-0.38,0-0.693-0.12-0.941-0.36s-0.371-0.55-0.371-0.93v-4.021
				h1.615v3.881h3.904v-6.729h-4.312c-0.38,0-0.688-0.12-0.924-0.36s-0.354-0.55-0.354-0.93v-7.449c0-0.379,0.118-0.689,0.354-0.93
				c0.236-0.239,0.544-0.36,0.924-0.36h4.648c0.38,0,0.688,0.121,0.924,0.36c0.236,0.24,0.354,0.551,0.354,0.93V49.556z
				 M108.887,41.282v-7.193h-3.975v7.193H108.887z"/>
			<path fill="#C7C9CB" stroke="#C7C9CB" stroke-width="0.85" stroke-miterlimit="10" d="M120.717,49.556
				c0,0.38-0.12,0.689-0.36,0.93s-0.55,0.36-0.93,0.36h-4.684c-0.379,0-0.689-0.12-0.93-0.36s-0.359-0.55-0.359-0.93v-4.613h1.615
				v4.474h4.021V43.85l-3.207-2.405v-0.36l3.184-2.371v-4.625h-3.975v4.091h-1.615v-4.23c0-0.379,0.12-0.689,0.36-0.93
				c0.24-0.239,0.55-0.36,0.93-0.36h4.637c0.38,0,0.689,0.121,0.93,0.36c0.24,0.24,0.36,0.551,0.36,0.93v4.428
				c0,0.581-0.232,1.034-0.697,1.36l-2.161,1.521l2.185,1.522c0.465,0.318,0.697,0.779,0.697,1.384V49.556z"/>
		</g>
	</g>
	<g>
		<g>
			<path fill="#C7C9CB" stroke="#C7C9CB" stroke-width="0.85" stroke-miterlimit="10" d="M95.488,172.962h-7.217v-0.86l5.567-11.562
				v-4.335H90.13v4.091h-1.627v-4.23c0-0.379,0.12-0.689,0.36-0.93c0.24-0.239,0.551-0.36,0.93-0.36h4.382
				c0.379,0,0.689,0.121,0.93,0.36c0.239,0.24,0.36,0.551,0.36,0.93v3.858c0,0.465-0.144,0.996-0.431,1.592l-4.811,10.018h5.264
				V172.962z"/>
			<path fill="#C7C9CB" stroke="#C7C9CB" stroke-width="0.85" stroke-miterlimit="10" d="M105.436,171.672
				c0,0.38-0.124,0.689-0.372,0.93s-0.562,0.36-0.941,0.36h-4.823c-0.379,0-0.689-0.12-0.93-0.36s-0.359-0.55-0.359-0.93v-15.607
				c0-0.379,0.119-0.689,0.359-0.93c0.24-0.239,0.551-0.36,0.93-0.36h4.823c0.38,0,0.693,0.121,0.941,0.36
				c0.248,0.24,0.372,0.551,0.372,0.93V171.672z M103.821,171.532v-15.328h-4.195v15.328H103.821z"/>
			<path fill="#C7C9CB" stroke="#C7C9CB" stroke-width="0.85" stroke-miterlimit="10" d="M110.154,172.962h-1.627v-12.609h-0.709
				v-0.058l1.022-5.521h1.313V172.962z"/>
			<path fill="#C7C9CB" stroke="#C7C9CB" stroke-width="0.85" stroke-miterlimit="10" d="M120.439,171.672
				c0,0.38-0.12,0.689-0.36,0.93s-0.55,0.36-0.93,0.36h-4.684c-0.379,0-0.689-0.12-0.93-0.36s-0.359-0.55-0.359-0.93v-4.613h1.615
				v4.474h4.021v-5.566l-3.207-2.405v-0.36l3.184-2.371v-4.625h-3.975v4.091h-1.615v-4.23c0-0.379,0.12-0.689,0.36-0.93
				c0.24-0.239,0.55-0.36,0.93-0.36h4.637c0.38,0,0.689,0.121,0.93,0.36c0.24,0.24,0.36,0.551,0.36,0.93v4.428
				c0,0.581-0.232,1.034-0.697,1.36l-2.161,1.521l2.185,1.522c0.465,0.318,0.697,0.779,0.697,1.384V171.672z"/>
		</g>
	</g>
	<g>
		<path fill="#FFFFFF" d="M146.442,123.787v1.307h-23.937c-0.104-7.447,5.854-12.02,11.185-16.723
			c5.435-4.637,10.766-9.537,10.766-16.526c0-6.925-4.233-10.647-9.878-10.647c-7.421,0-10.399,5.879-10.399,14.044h-1.045
			c0.052-9.733,3.919-15.351,11.444-15.351c6.062,0,10.923,3.984,10.923,11.954c0,7.381-5.278,12.476-10.661,17.179
			c-5.487,4.703-10.766,9.015-11.288,14.763H146.442z"/>
		<path fill="#FFFFFF" d="M163.215,125.878c-10.19,0-13.431-11.889-13.431-22.994c0-11.104,3.24-22.993,13.431-22.993
			c10.191,0,13.432,11.889,13.432,22.993C176.647,113.989,173.407,125.878,163.215,125.878z M163.215,81.198
			c-9.721,0-12.386,11.823-12.386,21.687c0,9.864,2.665,21.687,12.386,21.687s12.387-11.823,12.387-21.687
			C175.602,93.021,172.936,81.198,163.215,81.198z"/>
	</g>
	<g>
		<path fill="#57BBEA" stroke="#F1F1F2" stroke-width="1.7" stroke-miterlimit="10" d="M48.331,120.577
			c0,0.951-0.311,1.729-0.932,2.33s-1.407,0.902-2.358,0.902H33.304c-0.952,0-1.729-0.301-2.33-0.902s-0.902-1.379-0.902-2.33
			V81.466c0-0.951,0.301-1.728,0.902-2.33c0.602-0.602,1.378-0.902,2.33-0.902h11.736c0.951,0,1.737,0.301,2.358,0.902
			c0.621,0.603,0.932,1.379,0.932,2.33v10.601h-4.077V81.816H34.12v38.412h10.134v-11.212h4.077V120.577z"/>
		<path fill="#57BBEA" stroke="#F1F1F2" stroke-width="1.7" stroke-miterlimit="10" d="M73.171,120.577
			c0,0.951-0.296,1.729-0.888,2.33c-0.593,0.602-1.364,0.902-2.315,0.902H58.495c-0.952,0-1.733-0.301-2.345-0.902
			s-0.917-1.379-0.917-2.33v-11.562h4.048v11.212h9.843v-10.862l-12.58-15.202c-0.874-1.048-1.311-2.203-1.311-3.466v-9.231
			c0-0.951,0.306-1.728,0.917-2.33c0.611-0.602,1.393-0.902,2.345-0.902h11.474c0.951,0,1.723,0.301,2.315,0.902
			c0.592,0.603,0.888,1.379,0.888,2.33v10.601h-4.048V81.816h-9.843v9.61l12.639,15.202c0.835,1.01,1.252,2.146,1.252,3.407V120.577
			z"/>
		<path fill="#57BBEA" stroke="#F1F1F2" stroke-width="1.7" stroke-miterlimit="10" d="M98.77,120.577
			c0,0.951-0.301,1.729-0.902,2.33c-0.603,0.602-1.379,0.902-2.33,0.902H83.569c-0.952,0-1.729-0.301-2.33-0.902
			s-0.902-1.379-0.902-2.33V81.466c0-0.951,0.301-1.728,0.902-2.33c0.602-0.602,1.378-0.902,2.33-0.902h11.969
			c0.951,0,1.728,0.301,2.33,0.902c0.602,0.603,0.902,1.379,0.902,2.33v10.601h-4.077V81.816H84.384v38.412h10.309v-15.755H89.83
			v-3.495h8.94V120.577z"/>
	</g>
	<g>
		<path fill="#808184" d="M106.65,69.827c3.808,0,4.964,2.38,4.964,7.547v11.083c0,5.508,0.884,9.18,4.896,11.763v1.36
			c-2.924,0.476-4.896,5.847-4.896,11.354v11.219c0,5.168-1.156,7.412-4.964,7.412h-3.399v-1.36h3.264c2.72,0,3.74-1.7,3.74-7.275
			v-11.15c0-4.012,1.428-9.519,4.895-11.014c-2.991-1.429-4.895-5.984-4.895-11.151V78.598c0-6.052-1.156-7.411-3.74-7.411h-3.264
			v-1.36H106.65z"/>
	</g>
</g>
</svg>
