<?xml version="1.0" encoding="utf-8"?>
<!-- Generator: Adobe Illustrator 18.1.0, SVG Export Plug-In . SVG Version: 6.00 Build 0)  -->
<!DOCTYPE svg PUBLIC "-//W3C//DTD SVG 1.1//EN" "http://www.w3.org/Graphics/SVG/1.1/DTD/svg11.dtd">
<svg version="1.1" id="Layer_1" xmlns="http://www.w3.org/2000/svg" xmlns:xlink="http://www.w3.org/1999/xlink" x="0px" y="0px"
	 viewBox="-1192 761.8 206.4 207.2" enable-background="new -1192 761.8 206.4 207.2" xml:space="preserve">
<g>
	<circle fill="#191818" stroke="#938B8D" stroke-width="6.8" stroke-miterlimit="10" cx="-1089.3" cy="866.4" r="94.6"/>
	<g>
		<g>
			<path fill="#C7C9CB" stroke="#C7C9CB" stroke-width="0.85" stroke-miterlimit="10" d="M-1107.4,798.3h2.8v14.4h-1.4v-13h-2.3
				L-1107.4,798.3z"/>
			<path fill="#C7C9CB" stroke="#C7C9CB" stroke-width="0.85" stroke-miterlimit="10" d="M-1097.2,813l-1.2-0.8l3.9-5.9
				c-0.5,0.2-1,0.3-1.5,0.3c-1.1,0-2.1-0.4-2.9-1.2s-1.2-1.8-1.2-3c0-0.8,0.2-1.6,0.6-2.2s0.9-1.2,1.6-1.6s1.5-0.6,2.3-0.6
				c0.8,0,1.5,0.2,2.2,0.6s1.2,0.9,1.6,1.6s0.6,1.4,0.6,2.2c0,0.6-0.1,1.2-0.4,1.9s-0.7,1.4-1.3,2.3L-1097.2,813z M-1095.6,805.4
				c0.8,0,1.6-0.3,2.1-0.9s0.9-1.3,0.9-2.1s-0.3-1.5-0.9-2.1s-1.3-0.9-2.1-0.9c-0.8,0-1.5,0.3-2.1,0.9s-0.9,1.3-0.9,2.1
				s0.3,1.5,0.9,2.1S-1096.4,805.4-1095.6,805.4z"/>
			<path fill="#C7C9CB" stroke="#C7C9CB" stroke-width="0.85" stroke-miterlimit="10" d="M-1085.7,813l-1.2-0.8l3.9-5.9
				c-0.5,0.2-1,0.3-1.5,0.3c-1.1,0-2.1-0.4-2.9-1.2s-1.2-1.8-1.2-3c0-0.8,0.2-1.6,0.6-2.2s0.9-1.2,1.6-1.6s1.5-0.6,2.3-0.6
				c0.8,0,1.5,0.2,2.2,0.6s1.2,0.9,1.6,1.6s0.6,1.4,0.6,2.2c0,0.6-0.1,1.2-0.4,1.9s-0.7,1.4-1.3,2.3L-1085.7,813z M-1084.1,805.4
				c0.8,0,1.6-0.3,2.1-0.9s0.9-1.3,0.9-2.1s-0.3-1.5-0.9-2.1s-1.3-0.9-2.1-0.9c-0.8,0-1.5,0.3-2.1,0.9s-0.9,1.3-0.9,2.1
				s0.3,1.5,0.9,2.1S-1084.9,805.4-1084.1,805.4z"/>
			<path fill="#C7C9CB" stroke="#C7C9CB" stroke-width="0.85" stroke-miterlimit="10" d="M-1075.8,801.6h-1.5
				c0.3-1.2,0.8-2.1,1.5-2.7s1.6-1,2.7-1c0.7,0,1.4,0.2,2.1,0.5s1.1,0.8,1.5,1.4s0.5,1.2,0.5,1.8c0,1.2-0.6,2.2-1.8,2.9
				c0.7,0.3,1.3,0.7,1.7,1.2c0.6,0.8,0.9,1.6,0.9,2.6c0,0.8-0.2,1.6-0.6,2.3s-1,1.3-1.8,1.7s-1.6,0.6-2.5,0.6
				c-1.2,0-2.3-0.4-3.1-1.1s-1.4-1.8-1.6-3.1h1.4c0.2,0.9,0.6,1.6,1.1,2c0.6,0.5,1.3,0.8,2.3,0.8c1,0,1.9-0.3,2.5-0.9
				s0.9-1.4,0.9-2.2c0-0.6-0.2-1.1-0.5-1.6s-0.7-0.9-1.3-1.1s-1.4-0.4-2.5-0.5V804c0.7,0,1.3-0.1,1.8-0.3s0.9-0.5,1.2-0.9
				s0.4-0.7,0.4-1.2c0-0.6-0.2-1.2-0.7-1.6s-1.1-0.7-1.9-0.7c-0.6,0-1.2,0.2-1.6,0.5S-1075.5,800.8-1075.8,801.6z"/>
		</g>
	</g>
	<g>
		<g>
			<path fill="#C7C9CB" stroke="#C7C9CB" stroke-width="0.85" stroke-miterlimit="10" d="M-1108.6,922.9h-1.4c0-1.4,0.5-2.6,1.4-3.5
				c0.9-0.9,2-1.4,3.4-1.4c1.3,0,2.4,0.4,3.2,1.3c0.8,0.9,1.2,1.9,1.2,3c0,0.8-0.2,1.6-0.6,2.3c-0.4,0.7-1.1,1.7-2.3,2.9l-3.6,3.9
				h6.6v1.4h-9.8l5.5-5.9c1.1-1.2,1.8-2.1,2.2-2.7c0.3-0.6,0.5-1.2,0.5-1.8c0-0.8-0.3-1.5-0.9-2.1s-1.3-0.9-2.2-0.9
				c-0.9,0-1.7,0.3-2.3,0.9S-1108.5,921.8-1108.6,922.9z"/>
			<path fill="#C7C9CB" stroke="#C7C9CB" stroke-width="0.85" stroke-miterlimit="10" d="M-1097.6,925.6c0-1.9,0.2-3.4,0.6-4.4
				s1-1.8,1.7-2.4s1.6-0.8,2.5-0.8c0.9,0,1.8,0.3,2.5,0.8s1.4,1.3,1.8,2.4s0.7,2.5,0.7,4.3c0,1.8-0.2,3.2-0.6,4.3s-1,1.9-1.8,2.4
				s-1.6,0.8-2.5,0.8c-0.9,0-1.7-0.3-2.5-0.8s-1.3-1.3-1.7-2.4S-1097.6,927.5-1097.6,925.6z M-1096.2,925.6c0,1.6,0.1,2.8,0.4,3.7
				s0.7,1.5,1.3,1.9c0.6,0.4,1.2,0.6,1.8,0.6c0.6,0,1.2-0.2,1.8-0.6c0.6-0.4,1-1.1,1.3-1.9c0.4-1,0.5-2.3,0.5-3.7
				c0-1.4-0.2-2.6-0.5-3.6s-0.8-1.6-1.3-2s-1.2-0.6-1.8-0.6c-0.6,0-1.2,0.2-1.8,0.6s-1,1.1-1.3,1.9S-1096.2,924-1096.2,925.6z"/>
			<path fill="#C7C9CB" stroke="#C7C9CB" stroke-width="0.85" stroke-miterlimit="10" d="M-1084.6,918.4h2.8v14.4h-1.4v-13h-2.3
				L-1084.6,918.4z"/>
			<path fill="#C7C9CB" stroke="#C7C9CB" stroke-width="0.85" stroke-miterlimit="10" d="M-1070.1,918h0.3v10h1.7v1.4h-1.7v3.3h-1.4
				v-3.3h-6.9L-1070.1,918z M-1071.3,928.1v-6l-4.3,6H-1071.3z"/>
		</g>
	</g>
	<g>
		<path fill="#FFFFFF" d="M-1044.7,888.9h-23.9c0-1.9,0.3-3.6,0.9-5.1s1.5-3,2.6-4.3c1.1-1.3,2.3-2.6,3.6-3.8c1.3-1.2,2.7-2.4,4-3.6
			c1.4-1.2,2.7-2.4,4-3.6c1.3-1.2,2.4-2.5,3.4-3.8c1-1.3,1.8-2.7,2.4-4.2c0.6-1.5,0.9-3.1,0.9-4.9c0-1.7-0.3-3.3-0.8-4.6
			c-0.5-1.3-1.2-2.4-2.1-3.3c-0.9-0.9-1.9-1.6-3.1-2s-2.5-0.7-3.9-0.7c-1.8,0-3.4,0.3-4.8,1c-1.3,0.7-2.4,1.7-3.2,2.9
			s-1.4,2.7-1.8,4.4c-0.4,1.7-0.6,3.6-0.6,5.7h-1c0-4.9,1-8.7,2.9-11.3c1.9-2.7,4.7-4,8.5-4c1.5,0,3,0.3,4.3,0.8
			c1.3,0.5,2.5,1.3,3.4,2.3s1.8,2.2,2.3,3.7c0.6,1.5,0.9,3.2,0.9,5.2c0,2.4-0.5,4.7-1.6,6.7c-1,2-2.4,3.9-3.9,5.6
			c-1.6,1.7-3.3,3.4-5.1,4.9c-1.8,1.5-3.6,3.1-5.2,4.6s-3,3.1-4.2,4.8c-1.1,1.6-1.8,3.4-1.9,5.3h22.9V888.9z"/>
		<path fill="#FFFFFF" d="M-1027,846.2c-1.1,1.9-2.5,3.5-4.2,4.9s-3.5,2.4-5.3,3v-1.3c1.1-0.4,2-0.9,2.9-1.4s1.6-1.1,2.4-1.8
			s1.4-1.4,2.1-2.2c0.7-0.8,1.4-1.8,2.1-2.8h1.1v44.4h-1v-42.7H-1027z"/>
	</g>
	<g>
		<path fill="#57BBEA" stroke="#F1F1F2" stroke-width="1.7" stroke-miterlimit="10" d="M-1142.8,884.4c0,1-0.3,1.7-0.9,2.3
			s-1.4,0.9-2.4,0.9h-11.7c-1,0-1.7-0.3-2.3-0.9s-0.9-1.4-0.9-2.3v-39.1c0-1,0.3-1.7,0.9-2.3c0.6-0.6,1.4-0.9,2.3-0.9h11.7
			c1,0,1.7,0.3,2.4,0.9c0.6,0.6,0.9,1.4,0.9,2.3v10.6h-4.1v-10.3h-10.1V884h10.1v-11.2h4.1V884.4z"/>
		<path fill="#57BBEA" stroke="#F1F1F2" stroke-width="1.7" stroke-miterlimit="10" d="M-1118,884.4c0,1-0.3,1.7-0.9,2.3
			c-0.6,0.6-1.4,0.9-2.3,0.9h-11.5c-1,0-1.7-0.3-2.3-0.9s-0.9-1.4-0.9-2.3v-11.6h4V884h9.8v-10.9l-12.6-15.2c-0.9-1-1.3-2.2-1.3-3.5
			v-9.2c0-1,0.3-1.7,0.9-2.3c0.6-0.6,1.4-0.9,2.3-0.9h11.5c1,0,1.7,0.3,2.3,0.9c0.6,0.6,0.9,1.4,0.9,2.3v10.6h-4v-10.3h-9.8v9.6
			l12.6,15.2c0.8,1,1.3,2.1,1.3,3.4V884.4z"/>
		<path fill="#57BBEA" stroke="#F1F1F2" stroke-width="1.7" stroke-miterlimit="10" d="M-1092.4,884.4c0,1-0.3,1.7-0.9,2.3
			c-0.6,0.6-1.4,0.9-2.3,0.9h-12c-1,0-1.7-0.3-2.3-0.9s-0.9-1.4-0.9-2.3v-39.1c0-1,0.3-1.7,0.9-2.3c0.6-0.6,1.4-0.9,2.3-0.9h12
			c1,0,1.7,0.3,2.3,0.9c0.6,0.6,0.9,1.4,0.9,2.3v10.6h-4.1v-10.3h-10.3V884h10.3v-15.8h-4.9v-3.5h8.9V884.4z"/>
	</g>
	<g>
		<path fill="#808184" d="M-1079.6,835.5c0.7,1.2,1.1,3.1,1.1,5.7v11.1c0,2.8,0.3,5.1,1,7c0.6,1.9,1.9,3.5,3.9,4.8v1.4
			c-0.7,0.1-1.4,0.5-2,1.2c-0.6,0.7-1.1,1.5-1.6,2.6c-0.4,1-0.8,2.2-1,3.5c-0.2,1.3-0.3,2.7-0.3,4v11.2c0,2.6-0.4,4.5-1.1,5.6
			c-0.7,1.2-2,1.8-3.9,1.8h-3.4v-1.4h3.3c1.4,0,2.3-0.5,2.9-1.5c0.6-1,0.9-2.9,0.9-5.7v-11.1c0-1,0.1-2.1,0.3-3.2
			c0.2-1.1,0.5-2.2,0.9-3.3c0.4-1,0.9-2,1.5-2.8c0.6-0.8,1.3-1.4,2.2-1.8c-1.5-0.7-2.7-2.1-3.6-4.2c-0.9-2.1-1.3-4.4-1.3-7v-11
			c0-1.5-0.1-2.7-0.2-3.7c-0.2-1-0.4-1.7-0.7-2.3c-0.3-0.5-0.7-0.9-1.2-1.1c-0.5-0.2-1-0.3-1.7-0.3h-3.3v-1.4h3.4
			C-1081.6,833.6-1080.3,834.2-1079.6,835.5z"/>
	</g>
</g>
<g>
	<path fill="#FFFFFF" d="M-1017.4,887.6v1.3h-19.9v-1.3H-1017.4z"/>
</g>
</svg>
