<?xml version="1.0" encoding="utf-8"?>
<!-- Generator: Adobe Illustrator 17.0.0, SVG Export Plug-In . SVG Version: 6.00 Build 0)  -->
<!DOCTYPE svg PUBLIC "-//W3C//DTD SVG 1.1//EN" "http://www.w3.org/Graphics/SVG/1.1/DTD/svg11.dtd">
<svg version="1.1"
	 id="svg3070" xmlns:dc="http://purl.org/dc/elements/1.1/" xmlns:rdf="http://www.w3.org/1999/02/22-rdf-syntax-ns#" xmlns:cc="http://creativecommons.org/ns#" xmlns:svg="http://www.w3.org/2000/svg" xmlns:sodipodi="http://sodipodi.sourceforge.net/DTD/sodipodi-0.dtd" xmlns:inkscape="http://www.inkscape.org/namespaces/inkscape" inkscape:version="0.48.0 r9654" sodipodi:docname="New document 4"
	 xmlns="http://www.w3.org/2000/svg" xmlns:xlink="http://www.w3.org/1999/xlink" x="0px" y="0px" width="75.767px"
	 height="76.248px" viewBox="0 0 75.767 76.248" enable-background="new 0 0 75.767 76.248" xml:space="preserve">
<sodipodi:namedview  showgrid="false" bordercolor="#666666" borderopacity="1.0" inkscape:cy="33.703355" fit-margin-left="0" inkscape:cx="142.93233" pagecolor="#ffffff" fit-margin-top="0" inkscape:zoom="2.8" id="base" inkscape:document-units="px" fit-margin-right="0" inkscape:window-y="-8" inkscape:window-x="-8" inkscape:pageopacity="0.0" inkscape:current-layer="layer1" inkscape:pageshadow="2" fit-margin-bottom="0" inkscape:window-maximized="1" inkscape:window-height="750" inkscape:window-width="1280">
	</sodipodi:namedview>
<g id="layer1" transform="translate(-200.55198,-393.96227)" inkscape:label="Layer 1" inkscape:groupmode="layer">
	<g id="g3019" transform="matrix(1.018827,0,0,-1.018827,170.5996,498.03288)">
		<path id="path14" inkscape:connector-curvature="0" fill="#09A3E6" d="M29.399,96.786c0,2.96,2.46,5.361,5.496,5.361h63.376
			c3.035,0,5.496-2.401,5.496-5.361V32.669c0-2.961-2.461-5.361-5.496-5.361H34.895c-3.035,0-5.496,2.4-5.496,5.361V96.786z"/>
		<path id="path28" inkscape:connector-curvature="0" fill="#FFFFFF" d="M51.942,39.499v33.794H40.709V39.499H51.942z
			 M46.326,77.907c3.917,0,6.355,2.595,6.355,5.838c-0.073,3.316-2.438,5.839-6.281,5.839c-3.842,0-6.354-2.523-6.354-5.839
			c0-3.243,2.438-5.838,6.207-5.838H46.326L46.326,77.907z"/>
		<path id="path30" inkscape:connector-curvature="0" fill="#FFFFFF" d="M58.157,39.499H69.39v18.872c0,1.01,0.073,2.019,0.37,2.741
			c0.812,2.018,2.66,4.108,5.763,4.108c4.065,0,5.69-3.099,5.69-7.642V39.499h11.231v19.377c0,10.38-5.541,15.21-12.932,15.21
			c-6.06,0-8.72-3.387-10.198-5.694h0.075v4.901H58.157C58.305,70.122,58.157,39.499,58.157,39.499L58.157,39.499z"/>
	</g>
</g>
</svg>
