<svg xmlns="http://www.w3.org/2000/svg" xmlns:xlink="http://www.w3.org/1999/xlink" version="1.1" id="Layer_1" x="0px" y="0px" width="360px" height="360px" viewBox="0 0 360 360" enable-background="new 0 0 360 360" xml:space="preserve" xmlns:xml="http://www.w3.org/XML/1998/namespace">
<g>
  
    
  <g>
    <g>
      <g>
        <path fill="#333333" d="M179.658,315.279c-0.165,0-0.329-0.016-0.491-0.049c-39.08-7.909-66.154-27.059-81.984-41.729      c-17.186-15.929-25.025-29.829-25.351-30.413c-0.145-0.259-0.241-0.543-0.285-0.836L45.75,70.966      c-0.157-1.039,0.359-2.063,1.286-2.556c0.516-0.274,52.567-27.468,132.591-27.468c80.019,0,132.182,27.193,132.7,27.467      c0.929,0.493,1.444,1.518,1.288,2.557L287.82,242.252c-0.044,0.295-0.142,0.579-0.287,0.839      c-0.326,0.584-8.188,14.483-25.393,30.411c-15.848,14.671-42.936,33.819-81.991,41.728      C179.988,315.264,179.823,315.279,179.658,315.279z"/>
        <path fill="#A7A9AC" d="M179.627,43.418c80.328,0,131.539,27.178,131.539,27.178l-25.795,171.286      c0,0-31.198,55.83-105.713,70.92c-74.562-15.09-105.662-70.92-105.662-70.92L48.199,70.597      C48.199,70.597,99.295,43.418,179.627,43.418 M179.627,38.464c-42.094,0-76.12,7.502-97.252,13.795      c-23.026,6.857-35.963,13.676-36.502,13.963c-1.854,0.986-2.885,3.035-2.572,5.111L69.098,242.62      c0.088,0.588,0.282,1.154,0.571,1.674c0.333,0.598,8.359,14.831,25.831,31.024c16.063,14.888,43.533,34.317,83.177,42.341      c0.324,0.065,0.653,0.099,0.982,0.099c0.33,0,0.659-0.033,0.983-0.099c39.617-8.023,67.102-27.452,83.182-42.339      c17.488-16.191,25.538-30.422,25.872-31.02c0.291-0.521,0.485-1.09,0.574-1.68l25.795-171.286      c0.313-2.079-0.72-4.128-2.576-5.114c-0.541-0.287-13.504-7.105-36.557-13.961C255.774,45.966,221.718,38.464,179.627,38.464      L179.627,38.464z"/>
      </g>
      <g>
        <path fill="#2FB9EA" d="M263.265,241.883c0,0-9.092,43.39-83.606,58.488c-74.562-15.099-83.56-58.488-83.56-58.488      L56.486,76.123c0,0,42.809-27.176,123.141-27.176c80.33,0,123.25,27.176,123.25,27.176L263.265,241.883z"/>
      </g>
      <g>
        <path fill="#FFFFFF" d="M74.02,82.734c6.444-2.719,41.178-15.967,105.797-15.967c64.712,0,99.137,13.239,105.527,15.962      l-8.48,156.956c-7.457-1.362-35.235-5.51-97.072-5.51c-61.895,0-89.816,4.153-97.295,5.513L74.02,82.734z"/>
        <path fill="#77787B" d="M179.817,68.589c61.064,0,95.041,11.873,103.639,15.331l-8.301,153.623      c-9.904-1.628-38.117-5.189-95.363-5.189c-57.315,0-85.654,3.568-95.586,5.193L75.909,83.923      C84.53,80.46,118.563,68.589,179.817,68.589 M179.817,64.946c-73.007,0-107.684,16.628-107.684,16.628l8.658,160.308      c0,0,25.942-5.885,99.001-5.885c73.046,0,98.777,5.885,98.777,5.885l8.662-160.308      C287.231,81.574,252.828,64.946,179.817,64.946L179.817,64.946z"/>
      </g>
      <g>
        <path fill="#FFFFFF" d="M148.954,272.827h-4.865V249.15h11.465c0.774,0,1.614,0.147,2.517,0.452      c0.901,0.301,1.731,0.784,2.496,1.448c0.762,0.667,1.4,1.535,1.916,2.607c0.514,1.075,0.774,2.386,0.774,3.934      c0,3.023-0.871,5.376-2.611,7.054c-0.561,0.558-1.137,0.984-1.741,1.284c-0.6,0.301-1.163,0.53-1.691,0.678      c-0.528,0.153-0.976,0.235-1.351,0.259c-0.378,0.023-0.628,0.033-0.758,0.033h-6.152V272.827z M148.954,262.034h6.249h-0.031      c0.234,0,0.535-0.044,0.898-0.128c0.366-0.087,0.713-0.284,1.048-0.597c0.333-0.312,0.624-0.758,0.87-1.339      c0.247-0.577,0.373-1.373,0.373-2.379c0-0.755-0.099-1.358-0.291-1.822c-0.195-0.462-0.436-0.816-0.727-1.062      c-0.288-0.248-0.604-0.417-0.934-0.516c-0.333-0.097-0.626-0.146-0.884-0.146h-6.572V262.034z"/>
        <path fill="#FFFFFF" d="M184.513,264.418c0.625,0.558,1.161,1.186,1.612,1.883c0.45,0.702,0.821,1.417,1.111,2.158      c0.289,0.743,0.5,1.487,0.626,2.24c0.13,0.753,0.195,1.459,0.195,2.128h-2.414h-2.449c0-0.153-0.016-0.404-0.049-0.758      c-0.033-0.354-0.102-0.748-0.209-1.178c-0.109-0.429-0.269-0.868-0.482-1.318c-0.216-0.453-0.512-0.873-0.887-1.26      c-0.376-0.382-0.842-0.696-1.4-0.931c-0.558-0.235-1.236-0.355-2.029-0.355h-5.831v5.799h-4.831V249.15h10.663      c0.085,0,0.321,0.016,0.709,0.049c0.385,0.033,0.854,0.13,1.4,0.291c0.547,0.159,1.145,0.399,1.788,0.725      c0.643,0.319,1.267,0.784,1.866,1.384c1.786,1.783,2.675,4.232,2.675,7.345c0,1.222-0.188,2.287-0.565,3.189      C185.638,263.032,185.138,263.797,184.513,264.418z M178.138,262.164c0.256,0,0.591-0.038,0.997-0.113      c0.408-0.077,0.807-0.225,1.191-0.45c0.388-0.228,0.716-0.549,0.983-0.969c0.267-0.419,0.403-0.98,0.403-1.688      c0-1.117-0.146-2.003-0.437-2.658c-0.291-0.654-0.633-1.148-1.03-1.48c-0.399-0.333-0.8-0.548-1.208-0.645      c-0.408-0.099-0.72-0.146-0.934-0.146h-5.798v8.149H178.138z"/>
        <path fill="#FFFFFF" d="M203.484,272.792c-1.63,0-3.159-0.311-4.588-0.932c-1.431-0.625-2.674-1.471-3.736-2.545      c-1.063-1.074-1.907-2.327-2.528-3.756c-0.625-1.428-0.934-2.958-0.934-4.587c0-1.633,0.309-3.163,0.934-4.591      c0.621-1.429,1.465-2.682,2.528-3.755c1.062-1.07,2.306-1.92,3.736-2.543c1.429-0.624,2.958-0.934,4.588-0.934      c1.633,0,3.162,0.31,4.591,0.934c1.429,0.623,2.673,1.473,3.736,2.543c1.062,1.073,1.905,2.326,2.528,3.755      c0.624,1.428,0.934,2.958,0.934,4.591c0,1.629-0.31,3.159-0.934,4.587c-0.623,1.429-1.466,2.682-2.528,3.756      c-1.063,1.074-2.308,1.92-3.736,2.545C206.646,272.481,205.117,272.792,203.484,272.792z M203.484,254.015      c-0.964,0-1.867,0.181-2.705,0.547c-0.837,0.366-1.566,0.865-2.19,1.496c-0.622,0.633-1.117,1.368-1.48,2.208      c-0.366,0.838-0.549,1.74-0.549,2.707c0,0.966,0.183,1.869,0.549,2.704c0.363,0.84,0.858,1.574,1.48,2.207      c0.623,0.636,1.353,1.13,2.19,1.499c0.838,0.363,1.741,0.549,2.705,0.549c0.945,0,1.837-0.186,2.677-0.549      c0.838-0.369,1.571-0.863,2.204-1.499c0.632-0.633,1.134-1.367,1.5-2.207c0.363-0.835,0.544-1.738,0.544-2.704      c0-0.967-0.181-1.869-0.544-2.707c-0.366-0.84-0.868-1.575-1.5-2.208c-0.633-0.631-1.366-1.13-2.204-1.496      C205.321,254.195,204.43,254.015,203.484,254.015z"/>
      </g>
      <g>
        <path fill="#121212" d="M126.042,125.964v-23.039l-15.828,1.854l1.63,97.421l14.198-1.273V179.08l16.813-1.487v28.565      c0,5.983-5.238,10.404-11.209,11.024l-25.403,2.276c-5.998,0.319-11.21-5.039-11.21-11.023L93.38,99.897      c0-5.979,5.151-10.243,11.212-11.209l27.055-3.265c6.403-0.62,11.209,5.228,11.209,11.207v27.871L126.042,125.964z"/>
        <path fill="#121212" d="M171.659,176.132v22.602h14.2v-43.208h-19.801c-6.542,0-11.212-5.414-11.212-11.02V95      c0-6.537,4.48-11.207,11.212-11.207h25.405c6.352,0,11.21,4.67,11.21,11.02v27.462h-16.813v-21.673h-14.2v38.111h19.804      c6.352,0,11.21,5.228,11.21,11.212v54.604c0,5.98-5.045,11.021-11.21,11.021h-25.405c-5.981,0-11.212-5.041-11.212-11.021      v-28.396H171.659z"/>
        <path fill="#121212" d="M248.635,126.281l0.542-21.4l-15.855-1.881v98.022l13.27,1.243l0.868-29.695l-5.393-0.568v-16.754      l22.417,2.113l-1.297,51.141c0,5.979-5.153,11.491-11.21,11.025l-24.261-2.278c-6.127-0.688-11.207-5.043-11.207-11.024V96.698      c0-5.976,5.221-11.833,11.207-11.207l27.054,3.268c6.12,0.751,11.212,5.228,11.212,11.205l-0.705,27.901L248.635,126.281z"/>
      </g>
    </g>
  </g>
</g>
</svg>