<?xml version="1.0" encoding="utf-8"?>
<!-- Generator: Adobe Illustrator 17.0.0, SVG Export Plug-In . SVG Version: 6.00 Build 0)  -->
<!DOCTYPE svg PUBLIC "-//W3C//DTD SVG 1.1//EN" "http://www.w3.org/Graphics/SVG/1.1/DTD/svg11.dtd">
<svg version="1.1" id="Layer_1" xmlns="http://www.w3.org/2000/svg" xmlns:xlink="http://www.w3.org/1999/xlink" x="0px" y="0px"
	 width="470.462px" height="93.131px" viewBox="0 0 470.462 93.131" enable-background="new 0 0 470.462 93.131"
	 xml:space="preserve">
<g>
	<path fill="#FFFFFF" d="M52.938,45.296h-9.244V20.434c0-2.608,0.116-5.573,0.348-8.895H43.81c-0.483,2.569-0.917,4.404-1.304,5.505
		L32.77,45.296h-7.65l-9.91-27.963c-0.271-0.753-0.706-2.684-1.304-5.795h-0.261c0.251,3.883,0.377,7.476,0.377,10.779v22.978H5.59
		V3.743h13.706l8.49,24.63c0.676,1.99,1.168,3.97,1.478,5.94h0.174c0.502-2.241,1.052-4.24,1.651-5.998l8.49-24.572h13.358V45.296z"
		/>
	<path fill="#FFFFFF" d="M70.586,8.478c0,1.292-0.455,2.359-1.363,3.205c-0.91,0.846-2.109,1.268-3.6,1.268
		c-1.473,0-2.668-0.432-3.586-1.295c-0.918-0.863-1.377-1.922-1.377-3.177c0-1.309,0.468-2.368,1.404-3.177
		C63,4.492,64.186,4.088,65.623,4.088c1.455,0,2.646,0.414,3.573,1.241C70.123,6.156,70.586,7.206,70.586,8.478z M69.877,45.296
		h-8.618V17.369h8.618V45.296z"/>
	<path fill="#FFFFFF" d="M98.295,44.287c-1.928,1.127-4.737,1.691-8.427,1.691c-4.327,0-7.827-1.336-10.5-4.009
		c-2.6-2.582-3.9-5.9-3.9-9.955c0-4.836,1.473-8.627,4.418-11.373c2.836-2.636,6.59-3.955,11.263-3.955
		c3.309,0,5.69,0.437,7.146,1.309v7.309c-1.8-1.345-3.81-2.018-6.027-2.018c-2.437,0-4.373,0.709-5.809,2.128
		c-1.491,1.455-2.236,3.463-2.236,6.027c0,2.455,0.696,4.391,2.086,5.809c1.391,1.418,3.286,2.127,5.686,2.127
		c2.146,0,4.245-0.672,6.3-2.018V44.287z"/>
	<path fill="#FFFFFF" d="M122.157,25.142c-1.036-0.563-2.246-0.845-3.627-0.845c-1.891,0-3.359,0.687-4.404,2.059
		c-1.046,1.373-1.568,3.241-1.568,5.605v13.336h-8.618V17.369h8.618v5.182h0.109c1.364-3.781,3.818-5.673,7.364-5.673
		c0.891,0,1.6,0.109,2.127,0.328V25.142z"/>
	<path fill="#FFFFFF" d="M154.502,30.951c0,4.582-1.336,8.218-4.009,10.909c-2.727,2.746-6.473,4.118-11.236,4.118
		c-4.673,0-8.336-1.304-10.991-3.914c-2.655-2.608-3.982-6.15-3.982-10.623c0-4.708,1.436-8.372,4.309-10.991
		c2.728-2.509,6.409-3.764,11.045-3.764c4.8,0,8.536,1.4,11.208,4.2C153.284,23.469,154.502,26.824,154.502,30.951z M145.721,31.114
		c0-5.218-2.082-7.827-6.245-7.827c-1.982,0-3.537,0.673-4.664,2.018c-1.182,1.4-1.773,3.409-1.773,6.027
		c0,5.364,2.164,8.045,6.491,8.045C143.657,39.378,145.721,36.624,145.721,31.114z"/>
	<path fill="#FFFFFF" d="M179.347,36.76c0,2.691-0.991,4.854-2.973,6.491c-2.182,1.818-5.273,2.727-9.272,2.727
		c-2.946,0-5.646-0.473-8.1-1.418v-6.982c2.8,1.691,5.463,2.537,7.991,2.537c2.727,0,4.091-0.846,4.091-2.537
		c0-0.745-0.327-1.354-0.982-1.827c-0.654-0.473-2.082-1.127-4.282-1.963c-2.273-0.854-3.927-1.836-4.963-2.945
		c-1.236-1.327-1.854-3.082-1.854-5.264c0-2.673,1.054-4.823,3.164-6.45c2.109-1.627,4.963-2.441,8.564-2.441
		c2.309,0,4.618,0.373,6.927,1.118v6.655c-2.164-1.273-4.437-1.909-6.818-1.909c-2.273,0-3.409,0.782-3.409,2.345
		c0,0.837,0.318,1.51,0.955,2.019c0.563,0.436,1.7,0.964,3.409,1.581c2.509,0.891,4.345,1.909,5.509,3.055
		C178.665,32.897,179.347,34.633,179.347,36.76z"/>
	<path fill="#FFFFFF" d="M213.192,30.951c0,4.582-1.336,8.218-4.009,10.909c-2.727,2.746-6.473,4.118-11.236,4.118
		c-4.673,0-8.337-1.304-10.991-3.914c-2.655-2.608-3.982-6.15-3.982-10.623c0-4.708,1.436-8.372,4.309-10.991
		c2.727-2.509,6.409-3.764,11.045-3.764c4.8,0,8.536,1.4,11.208,4.2C211.974,23.469,213.192,26.824,213.192,30.951z M204.41,31.114
		c0-5.218-2.082-7.827-6.245-7.827c-1.982,0-3.537,0.673-4.664,2.018c-1.182,1.4-1.773,3.409-1.773,6.027
		c0,5.364,2.164,8.045,6.491,8.045C202.347,39.378,204.41,36.624,204.41,31.114z"/>
	<path fill="#FFFFFF" d="M236.127,10.551c-1.145-0.436-2.209-0.654-3.19-0.654c-2.764,0-4.146,1.5-4.146,4.5v2.973h6.382v6.354
		h-6.382v21.572h-8.591V23.724h-4.691v-6.354h4.691v-3.464c0-3.09,0.982-5.6,2.945-7.527c2.091-2.055,4.964-3.082,8.618-3.082
		c1.708,0,3.164,0.182,4.363,0.545V10.551z"/>
	<path fill="#FFFFFF" d="M255.056,44.969c-1.291,0.672-3.209,1.009-5.755,1.009c-6.072,0-9.108-3.154-9.108-9.463v-12.79h-4.527
		v-6.354h4.527v-6.027l8.591-2.455v8.482h6.272v6.354h-6.272v11.29c0,2.909,1.154,4.364,3.463,4.364c0.909,0,1.846-0.264,2.81-0.791
		V44.969z"/>
	<path fill="#FFFFFF" d="M302.343,16.986c0,4.076-1.438,7.399-4.317,9.968c-3.014,2.685-7.09,4.028-12.228,4.028h-4.463v14.314
		h-9.359V3.743h14.662C297.108,3.743,302.343,8.158,302.343,16.986z M292.491,17.333c0-4.269-2.492-6.404-7.476-6.404h-3.681v12.953
		h3.681C289.999,23.882,292.491,21.699,292.491,17.333z"/>
	<path fill="#FFFFFF" d="M327.543,45.296h-8.154v-4.009h-0.109c-1.873,3.127-4.646,4.691-8.318,4.691c-2.764,0-4.927-0.8-6.49-2.4
		c-1.491-1.527-2.236-3.545-2.236-6.054c0-5.4,3.209-8.527,9.627-9.382l7.581-1.009c0-3.054-1.654-4.582-4.963-4.582
		c-3.346,0-6.509,0.991-9.491,2.973v-6.491c1.128-0.581,2.682-1.1,4.664-1.555c2.182-0.527,4.163-0.791,5.945-0.791
		c7.963,0,11.945,3.973,11.945,11.918V45.296z M319.442,32.069l-5.072,0.654c-2.8,0.364-4.2,1.627-4.2,3.791
		c0,0.964,0.337,1.764,1.01,2.4c0.672,0.637,1.6,0.955,2.781,0.955c1.618,0,2.936-0.559,3.955-1.677
		c1.018-1.118,1.526-2.532,1.526-4.241V32.069z"/>
	<path fill="#FFFFFF" d="M351.461,25.142c-1.036-0.563-2.245-0.845-3.627-0.845c-1.892,0-3.359,0.687-4.404,2.059
		c-1.046,1.373-1.568,3.241-1.568,5.605v13.336h-8.618V17.369h8.618v5.182h0.109c1.363-3.781,3.817-5.673,7.363-5.673
		c0.891,0,1.6,0.109,2.127,0.328V25.142z"/>
	<path fill="#FFFFFF" d="M372.352,44.969c-1.291,0.672-3.209,1.009-5.755,1.009c-6.072,0-9.108-3.154-9.108-9.463v-12.79h-4.527
		v-6.354h4.527v-6.027l8.591-2.455v8.482h6.272v6.354h-6.272v11.29c0,2.909,1.154,4.364,3.463,4.364
		c0.909,0,1.846-0.264,2.809-0.791V44.969z"/>
	<path fill="#FFFFFF" d="M406.413,45.296h-8.591V29.778c0-4.327-1.546-6.491-4.637-6.491c-1.509,0-2.74,0.582-3.695,1.746
		c-0.954,1.164-1.432,2.609-1.432,4.336v15.927h-8.618V17.369h8.618v4.418h0.109c2.036-3.399,5.026-5.1,8.973-5.1
		c6.181,0,9.272,3.837,9.272,11.509V45.296z"/>
	<path fill="#FFFFFF" d="M439.439,33.787h-18.218c0.29,4.055,2.845,6.082,7.663,6.082c3.055,0,5.755-0.727,8.1-2.182v6.218
		c-2.582,1.382-5.936,2.073-10.063,2.073c-4.564,0-8.091-1.272-10.581-3.818c-2.437-2.491-3.654-5.955-3.654-10.391
		c0-4.909,1.509-8.745,4.527-11.509c2.6-2.381,5.744-3.573,9.435-3.573c4.236,0,7.482,1.319,9.736,3.955
		c2.036,2.382,3.055,5.555,3.055,9.518V33.787z M431.447,28.496c0-4-1.618-6-4.854-6c-1.437,0-2.673,0.619-3.709,1.854
		c-0.945,1.128-1.518,2.509-1.718,4.146H431.447z"/>
	<path fill="#FFFFFF" d="M464.011,25.142c-1.036-0.563-2.245-0.845-3.627-0.845c-1.892,0-3.359,0.687-4.404,2.059
		c-1.046,1.373-1.568,3.241-1.568,5.605v13.336h-8.618V17.369h8.618v5.182h0.109c1.363-3.781,3.817-5.673,7.363-5.673
		c0.891,0,1.6,0.109,2.127,0.328V25.142z"/>
</g>
<g>
	<path fill="#F6881F" d="M18.741,85.976c-1.78,1.014-3.757,1.52-5.932,1.52c-2.505,0-4.536-0.803-6.092-2.409
		c-1.59-1.64-2.385-3.814-2.385-6.525c0-2.76,0.878-5.021,2.632-6.784c1.722-1.738,3.909-2.607,6.562-2.607
		c1.919,0,3.538,0.313,4.856,0.939v2.298c-1.434-0.914-3.131-1.371-5.091-1.371c-1.977,0-3.596,0.68-4.857,2.039
		c-1.285,1.376-1.928,3.151-1.928,5.326c0,2.307,0.618,4.103,1.854,5.388c1.17,1.22,2.739,1.829,4.708,1.829
		c1.384,0,2.583-0.28,3.596-0.841v-4.955h-3.88v-1.878h5.956V85.976z"/>
	<path fill="#F6881F" d="M34.076,80.81c0,2.019-0.568,3.638-1.705,4.857c-1.137,1.219-2.67,1.828-4.597,1.828
		c-1.903,0-3.411-0.609-4.523-1.828c-1.087-1.179-1.631-2.731-1.631-4.659c0-2.2,0.618-3.901,1.854-5.104
		c1.145-1.121,2.678-1.681,4.597-1.681c1.887,0,3.359,0.585,4.418,1.754C33.547,77.149,34.076,78.759,34.076,80.81z M32,80.884
		c0-1.623-0.367-2.858-1.1-3.707c-0.708-0.815-1.701-1.224-2.978-1.224c-1.26,0-2.27,0.412-3.027,1.236
		c-0.799,0.881-1.199,2.13-1.199,3.744c0,1.516,0.383,2.7,1.149,3.553c0.766,0.853,1.792,1.279,3.077,1.279
		c1.335,0,2.352-0.433,3.053-1.298C31.658,83.628,32,82.433,32,80.884z"/>
	<path fill="#F6881F" d="M39.242,87.187h-2.027V68.452h2.027V87.187z"/>
	<path fill="#F6881F" d="M54.046,87.187H52.02v-2.15h-0.049c-0.939,1.64-2.39,2.459-4.35,2.459c-1.557,0-2.81-0.552-3.757-1.655
		c-0.989-1.138-1.483-2.694-1.483-4.672c0-2.108,0.527-3.794,1.582-5.054c1.054-1.261,2.459-1.891,4.214-1.891
		c1.73,0,2.995,0.684,3.794,2.051h0.049v-7.822h2.026V87.187z M52.02,81.465v-1.866c0-1.013-0.33-1.866-0.989-2.558
		c-0.684-0.725-1.549-1.088-2.595-1.088c-1.236,0-2.208,0.451-2.916,1.354c-0.709,0.902-1.063,2.152-1.063,3.75
		c0,1.524,0.367,2.707,1.1,3.547c0.676,0.775,1.557,1.162,2.645,1.162c1.153,0,2.089-0.421,2.805-1.261
		C51.682,83.697,52.02,82.685,52.02,81.465z"/>
	<path fill="#FFFFFF" d="M81.327,82.095c0,1.55-0.564,2.793-1.693,3.732c-1.079,0.906-2.43,1.359-4.053,1.359h-5.166V69.466h5.042
		c1.598,0,2.846,0.403,3.744,1.211c0.824,0.733,1.236,1.681,1.236,2.842c0,0.997-0.27,1.866-0.81,2.607
		c-0.54,0.742-1.287,1.273-2.243,1.595v0.049c1.203,0.141,2.154,0.581,2.855,1.322C80.965,79.866,81.327,80.867,81.327,82.095z
		 M78.263,73.927c0-1.722-1.129-2.583-3.386-2.583h-2.385v5.722h2.125c1.137,0,2.028-0.273,2.675-0.821
		C77.939,75.696,78.263,74.924,78.263,73.927z M79.152,82.07c0-2.093-1.425-3.139-4.276-3.139h-2.385v6.377h2.817
		c1.261,0,2.229-0.309,2.904-0.928C78.839,83.813,79.152,83.043,79.152,82.07z"/>
	<path fill="#FFFFFF" d="M94.871,87.187h-2.026v-2.002h-0.05c-0.84,1.541-2.138,2.311-3.893,2.311c-3.023,0-4.535-1.8-4.535-5.4
		v-7.562h2.027v7.241c0,2.661,1.021,3.992,3.064,3.992c0.98,0,1.79-0.356,2.428-1.069c0.639-0.712,0.958-1.67,0.958-2.873v-7.291
		h2.026V87.187z"/>
	<path fill="#FFFFFF" d="M105.882,83.801c0,1.038-0.388,1.898-1.162,2.582c-0.849,0.742-2.006,1.112-3.473,1.112
		c-1.203,0-2.249-0.255-3.139-0.766v-2.175c0.988,0.808,2.084,1.211,3.287,1.211c1.606,0,2.41-0.589,2.41-1.768
		c0-0.494-0.177-0.902-0.531-1.224c-0.354-0.321-1.046-0.708-2.076-1.161c-1.063-0.461-1.817-0.939-2.262-1.434
		c-0.536-0.585-0.803-1.347-0.803-2.286c0-1.055,0.416-1.93,1.248-2.626c0.832-0.696,1.903-1.044,3.213-1.044
		c1.005,0,1.907,0.197,2.706,0.593v2.039c-0.832-0.602-1.788-0.902-2.867-0.902c-0.676,0-1.215,0.165-1.619,0.494
		c-0.404,0.33-0.605,0.754-0.605,1.273c0,0.561,0.169,0.997,0.507,1.31c0.305,0.289,0.939,0.639,1.903,1.051
		c1.079,0.453,1.858,0.919,2.336,1.397C105.573,82.087,105.882,82.862,105.882,83.801z"/>
	<path fill="#FFFFFF" d="M111.22,69.997c0,0.37-0.129,0.684-0.389,0.94c-0.259,0.255-0.575,0.383-0.945,0.383
		c-0.363,0-0.673-0.124-0.933-0.371c-0.259-0.247-0.389-0.564-0.389-0.951c0-0.371,0.13-0.682,0.389-0.934
		c0.26-0.251,0.57-0.377,0.933-0.377c0.371,0,0.686,0.126,0.945,0.377C111.091,69.316,111.22,69.626,111.22,69.997z M110.875,87.187
		h-2.027V74.532h2.027V87.187z"/>
	<path fill="#FFFFFF" d="M125.481,87.187h-2.026V79.97c0-2.678-0.98-4.017-2.941-4.017c-1.013,0-1.852,0.379-2.515,1.137
		c-0.663,0.759-0.995,1.718-0.995,2.88v7.217h-2.027V74.532h2.027v2.101h0.049c0.947-1.606,2.332-2.409,4.152-2.409
		c1.392,0,2.453,0.453,3.182,1.359c0.729,0.906,1.093,2.191,1.093,3.856V87.187z"/>
	<path fill="#FFFFFF" d="M139.371,81.366h-8.935c0.033,1.417,0.412,2.504,1.137,3.263c0.725,0.758,1.722,1.137,2.991,1.137
		c1.425,0,2.731-0.462,3.917-1.385v1.892c-1.104,0.815-2.57,1.223-4.399,1.223c-1.73,0-3.102-0.543-4.115-1.631
		c-1.087-1.153-1.631-2.806-1.631-4.955c0-2.035,0.589-3.679,1.767-4.932c1.104-1.169,2.455-1.754,4.053-1.754
		c1.714,0,3.023,0.572,3.93,1.718c0.856,1.07,1.285,2.524,1.285,4.362V81.366z M137.295,79.649
		c-0.017-1.153-0.289-2.052-0.816-2.694c-0.552-0.667-1.335-1.001-2.348-1.001c-0.956,0-1.767,0.34-2.434,1.02
		c-0.668,0.68-1.079,1.571-1.236,2.676H137.295z"/>
	<path fill="#FFFFFF" d="M149.245,83.801c0,1.038-0.388,1.898-1.162,2.582c-0.849,0.742-2.006,1.112-3.473,1.112
		c-1.203,0-2.249-0.255-3.139-0.766v-2.175c0.988,0.808,2.084,1.211,3.287,1.211c1.606,0,2.41-0.589,2.41-1.768
		c0-0.494-0.177-0.902-0.531-1.224c-0.354-0.321-1.046-0.708-2.076-1.161c-1.063-0.461-1.817-0.939-2.262-1.434
		c-0.536-0.585-0.803-1.347-0.803-2.286c0-1.055,0.416-1.93,1.248-2.626c0.832-0.696,1.903-1.044,3.213-1.044
		c1.005,0,1.907,0.197,2.706,0.593v2.039c-0.832-0.602-1.788-0.902-2.867-0.902c-0.676,0-1.215,0.165-1.619,0.494
		c-0.404,0.33-0.605,0.754-0.605,1.273c0,0.561,0.169,0.997,0.507,1.31c0.305,0.289,0.939,0.639,1.903,1.051
		c1.079,0.453,1.858,0.919,2.336,1.397C148.936,82.087,149.245,82.862,149.245,83.801z"/>
	<path fill="#FFFFFF" d="M159.119,83.801c0,1.038-0.388,1.898-1.162,2.582c-0.849,0.742-2.006,1.112-3.473,1.112
		c-1.203,0-2.249-0.255-3.139-0.766v-2.175c0.988,0.808,2.084,1.211,3.287,1.211c1.606,0,2.41-0.589,2.41-1.768
		c0-0.494-0.177-0.902-0.531-1.224c-0.354-0.321-1.046-0.708-2.076-1.161c-1.063-0.461-1.817-0.939-2.262-1.434
		c-0.536-0.585-0.803-1.347-0.803-2.286c0-1.055,0.416-1.93,1.248-2.626c0.832-0.696,1.903-1.044,3.213-1.044
		c1.005,0,1.907,0.197,2.706,0.593v2.039c-0.832-0.602-1.788-0.902-2.867-0.902c-0.676,0-1.215,0.165-1.619,0.494
		c-0.404,0.33-0.605,0.754-0.605,1.273c0,0.561,0.169,0.997,0.507,1.31c0.305,0.289,0.939,0.639,1.903,1.051
		c1.079,0.453,1.858,0.919,2.336,1.397C158.81,82.087,159.119,82.862,159.119,83.801z"/>
	<path fill="#FFFFFF" d="M171.365,87.187h-2.076V69.466h2.076V87.187z"/>
	<path fill="#FFFFFF" d="M186.256,87.187h-2.026V79.97c0-2.678-0.98-4.017-2.941-4.017c-1.013,0-1.852,0.379-2.515,1.137
		c-0.663,0.759-0.995,1.718-0.995,2.88v7.217h-2.027V74.532h2.027v2.101h0.049c0.947-1.606,2.332-2.409,4.152-2.409
		c1.392,0,2.453,0.453,3.182,1.359c0.729,0.906,1.093,2.191,1.093,3.856V87.187z"/>
	<path fill="#FFFFFF" d="M195.944,87.063c-0.478,0.272-1.112,0.408-1.903,0.408c-2.208,0-3.311-1.244-3.311-3.732V76.25h-2.175
		v-1.718h2.175v-3.09c0.643-0.205,1.318-0.424,2.026-0.654v3.744h3.189v1.718h-3.189v7.143c0,0.849,0.144,1.452,0.433,1.811
		c0.288,0.358,0.77,0.537,1.446,0.537c0.502,0,0.939-0.136,1.31-0.407V87.063z"/>
	<path fill="#FFFFFF" d="M208.524,81.366h-8.935c0.033,1.417,0.412,2.504,1.137,3.263c0.725,0.758,1.722,1.137,2.991,1.137
		c1.425,0,2.731-0.462,3.917-1.385v1.892c-1.104,0.815-2.57,1.223-4.399,1.223c-1.73,0-3.102-0.543-4.115-1.631
		c-1.087-1.153-1.631-2.806-1.631-4.955c0-2.035,0.589-3.679,1.767-4.932c1.104-1.169,2.455-1.754,4.053-1.754
		c1.714,0,3.023,0.572,3.93,1.718c0.857,1.07,1.285,2.524,1.285,4.362V81.366z M206.448,79.649
		c-0.017-1.153-0.288-2.052-0.816-2.694c-0.552-0.667-1.334-1.001-2.348-1.001c-0.956,0-1.767,0.34-2.435,1.02
		c-0.667,0.68-1.079,1.571-1.236,2.676H206.448z"/>
	<path fill="#FFFFFF" d="M213.517,87.187h-2.027V68.452h2.027V87.187z"/>
	<path fill="#FFFFFF" d="M219.647,87.187h-2.027V68.452h2.027V87.187z"/>
	<path fill="#FFFFFF" d="M226.122,69.997c0,0.37-0.129,0.684-0.389,0.94c-0.259,0.255-0.575,0.383-0.945,0.383
		c-0.363,0-0.673-0.124-0.933-0.371c-0.259-0.247-0.389-0.564-0.389-0.951c0-0.371,0.13-0.682,0.389-0.934
		c0.26-0.251,0.57-0.377,0.933-0.377c0.371,0,0.686,0.126,0.945,0.377C225.992,69.316,226.122,69.626,226.122,69.997z
		 M225.776,87.187h-2.027V74.532h2.027V87.187z"/>
	<path fill="#FFFFFF" d="M240.58,86.173c0,4.639-2.225,6.958-6.673,6.958c-1.565,0-2.933-0.293-4.103-0.878v-2.026
		c1.425,0.791,2.781,1.187,4.066,1.187c3.122,0,4.684-1.652,4.684-4.956v-1.397h-0.05c-0.964,1.624-2.414,2.435-4.35,2.435
		c-1.557,0-2.813-0.556-3.769-1.668c-0.98-1.129-1.471-2.648-1.471-4.56c0-2.134,0.511-3.831,1.532-5.092
		c1.038-1.302,2.459-1.952,4.264-1.952c1.706,0,2.97,0.684,3.794,2.051h0.05v-1.742h2.026V86.173z M238.554,81.465v-1.866
		c0-0.988-0.33-1.837-0.988-2.546c-0.685-0.732-1.541-1.1-2.571-1.1c-1.244,0-2.216,0.441-2.917,1.322
		c-0.725,0.906-1.087,2.196-1.087,3.868c0,1.4,0.34,2.522,1.019,3.361c0.68,0.84,1.58,1.261,2.7,1.261
		c1.137,0,2.061-0.402,2.774-1.205C238.197,83.757,238.554,82.726,238.554,81.465z"/>
	<path fill="#FFFFFF" d="M254.755,81.366h-8.935c0.032,1.417,0.412,2.504,1.137,3.263c0.725,0.758,1.722,1.137,2.99,1.137
		c1.426,0,2.731-0.462,3.918-1.385v1.892c-1.105,0.815-2.57,1.223-4.399,1.223c-1.73,0-3.102-0.543-4.115-1.631
		c-1.088-1.153-1.631-2.806-1.631-4.955c0-2.035,0.589-3.679,1.767-4.932c1.105-1.169,2.455-1.754,4.054-1.754
		c1.713,0,3.023,0.572,3.93,1.718c0.857,1.07,1.285,2.524,1.285,4.362V81.366z M252.679,79.649
		c-0.017-1.153-0.288-2.052-0.815-2.694c-0.553-0.667-1.335-1.001-2.349-1.001c-0.955,0-1.767,0.34-2.434,1.02
		c-0.668,0.68-1.08,1.571-1.236,2.676H252.679z"/>
	<path fill="#FFFFFF" d="M268.225,87.187h-2.027V79.97c0-2.678-0.98-4.017-2.941-4.017c-1.014,0-1.852,0.379-2.515,1.137
		c-0.664,0.759-0.995,1.718-0.995,2.88v7.217h-2.026V74.532h2.026v2.101h0.05c0.947-1.606,2.331-2.409,4.151-2.409
		c1.393,0,2.453,0.453,3.183,1.359c0.729,0.906,1.094,2.191,1.094,3.856V87.187z"/>
	<path fill="#FFFFFF" d="M280.569,86.606c-0.973,0.594-2.13,0.89-3.473,0.89c-1.812,0-3.274-0.6-4.387-1.804
		c-1.088-1.17-1.631-2.678-1.631-4.523c0-2.076,0.595-3.752,1.785-5.029c1.19-1.277,2.791-1.915,4.801-1.915
		c1.104,0,2.08,0.214,2.929,0.643v2.076c-0.938-0.659-1.944-0.989-3.015-0.989c-1.285,0-2.336,0.449-3.151,1.348
		c-0.849,0.922-1.273,2.149-1.273,3.683c0,1.475,0.39,2.64,1.168,3.497c0.779,0.856,1.823,1.285,3.133,1.285
		c1.104,0,2.142-0.362,3.114-1.088V86.606z"/>
	<path fill="#FFFFFF" d="M293.706,81.366h-8.935c0.032,1.417,0.412,2.504,1.137,3.263c0.725,0.758,1.722,1.137,2.99,1.137
		c1.426,0,2.732-0.462,3.918-1.385v1.892c-1.104,0.815-2.57,1.223-4.399,1.223c-1.73,0-3.102-0.543-4.115-1.631
		c-1.088-1.153-1.631-2.806-1.631-4.955c0-2.035,0.589-3.679,1.767-4.932c1.105-1.169,2.455-1.754,4.054-1.754
		c1.713,0,3.023,0.572,3.93,1.718c0.856,1.07,1.285,2.524,1.285,4.362V81.366z M291.63,79.649c-0.017-1.153-0.288-2.052-0.815-2.694
		c-0.553-0.667-1.335-1.001-2.349-1.001c-0.955,0-1.767,0.34-2.434,1.02c-0.668,0.68-1.08,1.571-1.236,2.676H291.63z"/>
</g>
</svg>
