<?xml version="1.0" encoding="utf-8"?>
<!-- Generator: Adobe Illustrator 18.0.0, SVG Export Plug-In . SVG Version: 6.00 Build 0)  -->
<!DOCTYPE svg PUBLIC "-//W3C//DTD SVG 1.1//EN" "http://www.w3.org/Graphics/SVG/1.1/DTD/svg11.dtd">
<svg version="1.1" id="Layer_1" xmlns="http://www.w3.org/2000/svg" xmlns:xlink="http://www.w3.org/1999/xlink" x="0px" y="0px"
	 viewBox="0 0 470.5 93.1" enable-background="new 0 0 470.5 93.1" xml:space="preserve">
<g>
	<path fill="#FFFFFF" d="M52.9,45.3h-9.2V20.4c0-2.6,0.1-5.6,0.3-8.9h-0.2c-0.5,2.6-0.9,4.4-1.3,5.5l-9.7,28.3h-7.6l-9.9-28
		c-0.3-0.8-0.7-2.7-1.3-5.8h-0.3C13.9,15.4,14,19,14,22.3v23H5.6V3.7h13.7l8.5,24.6c0.7,2,1.2,4,1.5,5.9h0.2c0.5-2.2,1.1-4.2,1.7-6
		l8.5-24.6h13.4L52.9,45.3L52.9,45.3z"/>
	<path fill="#FFFFFF" d="M70.6,8.5c0,1.3-0.5,2.4-1.4,3.2c-0.9,0.8-2.1,1.3-3.6,1.3c-1.5,0-2.7-0.4-3.6-1.3s-1.4-1.9-1.4-3.2
		c0-1.3,0.5-2.4,1.4-3.2c0.9-0.8,2.1-1.2,3.6-1.2c1.5,0,2.6,0.4,3.6,1.2S70.6,7.2,70.6,8.5z M69.9,45.3h-8.6V17.4h8.6V45.3z"/>
	<path fill="#FFFFFF" d="M98.3,44.3c-1.9,1.1-4.7,1.7-8.4,1.7c-4.3,0-7.8-1.3-10.5-4c-2.6-2.6-3.9-5.9-3.9-10
		c0-4.8,1.5-8.6,4.4-11.4c2.8-2.6,6.6-4,11.3-4c3.3,0,5.7,0.4,7.1,1.3v7.3c-1.8-1.3-3.8-2-6-2c-2.4,0-4.4,0.7-5.8,2.1
		c-1.5,1.5-2.2,3.5-2.2,6c0,2.5,0.7,4.4,2.1,5.8c1.4,1.4,3.3,2.1,5.7,2.1c2.1,0,4.2-0.7,6.3-2V44.3z"/>
	<path fill="#FFFFFF" d="M122.2,25.1c-1-0.6-2.2-0.8-3.6-0.8c-1.9,0-3.4,0.7-4.4,2.1c-1,1.4-1.6,3.2-1.6,5.6v13.3h-8.6V17.4h8.6v5.2
		h0.1c1.4-3.8,3.8-5.7,7.4-5.7c0.9,0,1.6,0.1,2.1,0.3L122.2,25.1L122.2,25.1z"/>
	<path fill="#FFFFFF" d="M154.5,31c0,4.6-1.3,8.2-4,10.9c-2.7,2.7-6.5,4.1-11.2,4.1c-4.7,0-8.3-1.3-11-3.9c-2.7-2.6-4-6.2-4-10.6
		c0-4.7,1.4-8.4,4.3-11c2.7-2.5,6.4-3.8,11-3.8c4.8,0,8.5,1.4,11.2,4.2C153.3,23.5,154.5,26.8,154.5,31z M145.7,31.1
		c0-5.2-2.1-7.8-6.2-7.8c-2,0-3.5,0.7-4.7,2c-1.2,1.4-1.8,3.4-1.8,6c0,5.4,2.2,8,6.5,8C143.7,39.4,145.7,36.6,145.7,31.1z"/>
	<path fill="#FFFFFF" d="M179.3,36.8c0,2.7-1,4.9-3,6.5c-2.2,1.8-5.3,2.7-9.3,2.7c-2.9,0-5.6-0.5-8.1-1.4v-7c2.8,1.7,5.5,2.5,8,2.5
		c2.7,0,4.1-0.8,4.1-2.5c0-0.7-0.3-1.4-1-1.8c-0.7-0.5-2.1-1.1-4.3-2c-2.3-0.9-3.9-1.8-5-2.9c-1.2-1.3-1.9-3.1-1.9-5.3
		c0-2.7,1.1-4.8,3.2-6.5c2.1-1.6,5-2.4,8.6-2.4c2.3,0,4.6,0.4,6.9,1.1v6.7c-2.2-1.3-4.4-1.9-6.8-1.9c-2.3,0-3.4,0.8-3.4,2.3
		c0,0.8,0.3,1.5,1,2c0.6,0.4,1.7,1,3.4,1.6c2.5,0.9,4.3,1.9,5.5,3.1C178.7,32.9,179.3,34.6,179.3,36.8z"/>
	<path fill="#FFFFFF" d="M213.2,31c0,4.6-1.3,8.2-4,10.9c-2.7,2.7-6.5,4.1-11.2,4.1c-4.7,0-8.3-1.3-11-3.9c-2.7-2.6-4-6.2-4-10.6
		c0-4.7,1.4-8.4,4.3-11c2.7-2.5,6.4-3.8,11-3.8c4.8,0,8.5,1.4,11.2,4.2C212,23.5,213.2,26.8,213.2,31z M204.4,31.1
		c0-5.2-2.1-7.8-6.2-7.8c-2,0-3.5,0.7-4.7,2c-1.2,1.4-1.8,3.4-1.8,6c0,5.4,2.2,8,6.5,8C202.3,39.4,204.4,36.6,204.4,31.1z"/>
	<path fill="#FFFFFF" d="M236.1,10.6c-1.1-0.4-2.2-0.7-3.2-0.7c-2.8,0-4.1,1.5-4.1,4.5v3h6.4v6.4h-6.4v21.6h-8.6V23.7h-4.7v-6.4h4.7
		v-3.5c0-3.1,1-5.6,2.9-7.5c2.1-2.1,5-3.1,8.6-3.1c1.7,0,3.2,0.2,4.4,0.5L236.1,10.6L236.1,10.6z"/>
	<path fill="#FFFFFF" d="M255.1,45c-1.3,0.7-3.2,1-5.8,1c-6.1,0-9.1-3.2-9.1-9.5V23.7h-4.5v-6.4h4.5v-6l8.6-2.5v8.5h6.3v6.4h-6.3V35
		c0,2.9,1.2,4.4,3.5,4.4c0.9,0,1.8-0.3,2.8-0.8L255.1,45L255.1,45z"/>
	<path fill="#FFFFFF" d="M302.3,17c0,4.1-1.4,7.4-4.3,10c-3,2.7-7.1,4-12.2,4h-4.5v14.3H272V3.7h14.7C297.1,3.7,302.3,8.2,302.3,17z
		 M292.5,17.3c0-4.3-2.5-6.4-7.5-6.4h-3.7v13h3.7C290,23.9,292.5,21.7,292.5,17.3z"/>
	<path fill="#FFFFFF" d="M327.5,45.3h-8.2v-4h-0.1c-1.9,3.1-4.6,4.7-8.3,4.7c-2.8,0-4.9-0.8-6.5-2.4c-1.5-1.5-2.2-3.5-2.2-6.1
		c0-5.4,3.2-8.5,9.6-9.4l7.6-1c0-3.1-1.7-4.6-5-4.6c-3.3,0-6.5,1-9.5,3V19c1.1-0.6,2.7-1.1,4.7-1.6c2.2-0.5,4.2-0.8,5.9-0.8
		c8,0,11.9,4,11.9,11.9L327.5,45.3L327.5,45.3z M319.4,32.1l-5.1,0.7c-2.8,0.4-4.2,1.6-4.2,3.8c0,1,0.3,1.8,1,2.4
		c0.7,0.6,1.6,1,2.8,1c1.6,0,2.9-0.6,4-1.7c1-1.1,1.5-2.5,1.5-4.2V32.1z"/>
	<path fill="#FFFFFF" d="M351.5,25.1c-1-0.6-2.2-0.8-3.6-0.8c-1.9,0-3.4,0.7-4.4,2.1c-1,1.4-1.6,3.2-1.6,5.6v13.3h-8.6V17.4h8.6v5.2
		h0.1c1.4-3.8,3.8-5.7,7.4-5.7c0.9,0,1.6,0.1,2.1,0.3L351.5,25.1L351.5,25.1z"/>
	<path fill="#FFFFFF" d="M372.4,45c-1.3,0.7-3.2,1-5.8,1c-6.1,0-9.1-3.2-9.1-9.5V23.7H353v-6.4h4.5v-6l8.6-2.5v8.5h6.3v6.4h-6.3V35
		c0,2.9,1.2,4.4,3.5,4.4c0.9,0,1.8-0.3,2.8-0.8V45z"/>
	<path fill="#FFFFFF" d="M406.4,45.3h-8.6V29.8c0-4.3-1.5-6.5-4.6-6.5c-1.5,0-2.7,0.6-3.7,1.7c-1,1.2-1.4,2.6-1.4,4.3v15.9h-8.6
		V17.4h8.6v4.4h0.1c2-3.4,5-5.1,9-5.1c6.2,0,9.3,3.8,9.3,11.5L406.4,45.3L406.4,45.3z"/>
	<path fill="#FFFFFF" d="M439.4,33.8h-18.2c0.3,4.1,2.8,6.1,7.7,6.1c3.1,0,5.8-0.7,8.1-2.2v6.2c-2.6,1.4-5.9,2.1-10.1,2.1
		c-4.6,0-8.1-1.3-10.6-3.8c-2.4-2.5-3.7-6-3.7-10.4c0-4.9,1.5-8.7,4.5-11.5c2.6-2.4,5.7-3.6,9.4-3.6c4.2,0,7.5,1.3,9.7,4
		c2,2.4,3.1,5.6,3.1,9.5L439.4,33.8L439.4,33.8z M431.4,28.5c0-4-1.6-6-4.9-6c-1.4,0-2.7,0.6-3.7,1.9c-0.9,1.1-1.5,2.5-1.7,4.1
		H431.4z"/>
	<path fill="#FFFFFF" d="M464,25.1c-1-0.6-2.2-0.8-3.6-0.8c-1.9,0-3.4,0.7-4.4,2.1c-1,1.4-1.6,3.2-1.6,5.6v13.3h-8.6V17.4h8.6v5.2
		h0.1c1.4-3.8,3.8-5.7,7.4-5.7c0.9,0,1.6,0.1,2.1,0.3L464,25.1L464,25.1z"/>
</g>
<g>
	<path fill="#F6881F" d="M18.7,86c-1.8,1-3.8,1.5-5.9,1.5c-2.5,0-4.5-0.8-6.1-2.4c-1.6-1.6-2.4-3.8-2.4-6.5c0-2.8,0.9-5,2.6-6.8
		c1.7-1.7,3.9-2.6,6.6-2.6c1.9,0,3.5,0.3,4.9,0.9v2.3c-1.4-0.9-3.1-1.4-5.1-1.4c-2,0-3.6,0.7-4.9,2c-1.3,1.4-1.9,3.2-1.9,5.3
		c0,2.3,0.6,4.1,1.9,5.4c1.2,1.2,2.7,1.8,4.7,1.8c1.4,0,2.6-0.3,3.6-0.8v-5h-3.9v-1.9h6L18.7,86L18.7,86z"/>
	<path fill="#F6881F" d="M34.1,80.8c0,2-0.6,3.6-1.7,4.9c-1.1,1.2-2.7,1.8-4.6,1.8c-1.9,0-3.4-0.6-4.5-1.8c-1.1-1.2-1.6-2.7-1.6-4.7
		c0-2.2,0.6-3.9,1.9-5.1c1.1-1.1,2.7-1.7,4.6-1.7c1.9,0,3.4,0.6,4.4,1.8C33.5,77.1,34.1,78.8,34.1,80.8z M32,80.9
		c0-1.6-0.4-2.9-1.1-3.7c-0.7-0.8-1.7-1.2-3-1.2c-1.3,0-2.3,0.4-3,1.2c-0.8,0.9-1.2,2.1-1.2,3.7c0,1.5,0.4,2.7,1.1,3.6
		c0.8,0.9,1.8,1.3,3.1,1.3c1.3,0,2.4-0.4,3.1-1.3C31.7,83.6,32,82.4,32,80.9z"/>
	<path fill="#F6881F" d="M39.2,87.2h-2V68.5h2V87.2z"/>
	<path fill="#F6881F" d="M54,87.2h-2V85h0c-0.9,1.6-2.4,2.5-4.3,2.5c-1.6,0-2.8-0.6-3.8-1.7c-1-1.1-1.5-2.7-1.5-4.7
		c0-2.1,0.5-3.8,1.6-5.1c1.1-1.3,2.5-1.9,4.2-1.9c1.7,0,3,0.7,3.8,2.1h0v-7.8h2V87.2z M52,81.5v-1.9c0-1-0.3-1.9-1-2.6
		c-0.7-0.7-1.5-1.1-2.6-1.1c-1.2,0-2.2,0.5-2.9,1.4c-0.7,0.9-1.1,2.2-1.1,3.8c0,1.5,0.4,2.7,1.1,3.5c0.7,0.8,1.6,1.2,2.6,1.2
		c1.2,0,2.1-0.4,2.8-1.3C51.7,83.7,52,82.7,52,81.5z"/>
</g>
<g>
	<path fill="#FFFFFF" d="M84,87.1h-2.3l-1.8-4.9h-7.4l-1.7,4.9h-2.3l6.7-17.5h2.1L84,87.1z M79.2,80.4l-2.7-7.4
		c-0.1-0.2-0.2-0.6-0.3-1.2h0c-0.1,0.5-0.2,0.9-0.3,1.2l-2.7,7.4H79.2z"/>
	<path fill="#FFFFFF" d="M97.9,80.5c0,2-0.5,3.7-1.5,4.9c-1,1.3-2.4,2-4.2,2c-1.6,0-2.9-0.7-3.7-2.1h0v7.5h-2V74.6h2v2.2h0
		c1-1.7,2.4-2.5,4.3-2.5c1.7,0,2.9,0.6,3.9,1.8C97.5,77.2,97.9,78.7,97.9,80.5z M95.9,80.5c0-1.4-0.3-2.5-1-3.3
		c-0.6-0.8-1.5-1.2-2.6-1.2c-1.2,0-2.2,0.4-2.9,1.3c-0.7,0.8-1,1.8-1,3V82c0,1,0.3,1.9,1,2.6c0.7,0.7,1.6,1.1,2.6,1.1
		c1.2,0,2.1-0.4,2.8-1.3C95.5,83.4,95.9,82.1,95.9,80.5z"/>
	<path fill="#FFFFFF" d="M112.6,80.5c0,2-0.5,3.7-1.5,4.9c-1,1.3-2.4,2-4.2,2c-1.6,0-2.9-0.7-3.7-2.1h0v7.5h-2V74.6h2v2.2h0
		c1-1.7,2.4-2.5,4.3-2.5c1.7,0,2.9,0.6,3.9,1.8C112.2,77.2,112.6,78.7,112.6,80.5z M110.6,80.5c0-1.4-0.3-2.5-1-3.3
		c-0.6-0.8-1.5-1.2-2.6-1.2c-1.2,0-2.2,0.4-2.9,1.3c-0.7,0.8-1,1.8-1,3V82c0,1,0.3,1.9,1,2.6c0.7,0.7,1.6,1.1,2.6,1.1
		c1.2,0,2.1-0.4,2.8-1.3C110.2,83.4,110.6,82.1,110.6,80.5z"/>
	<path fill="#FFFFFF" d="M117.9,87.1h-2V68.6h2V87.1z"/>
	<path fill="#FFFFFF" d="M124.4,70.1c0,0.4-0.1,0.7-0.4,0.9c-0.3,0.3-0.6,0.4-0.9,0.4c-0.4,0-0.7-0.1-0.9-0.4
		c-0.3-0.2-0.4-0.6-0.4-0.9c0-0.4,0.1-0.7,0.4-0.9c0.3-0.2,0.6-0.4,0.9-0.4c0.4,0,0.7,0.1,0.9,0.4C124.3,69.5,124.4,69.8,124.4,70.1
		z M124.1,87.1h-2V74.6h2V87.1z"/>
	<path fill="#FFFFFF" d="M136.7,86.5c-1,0.6-2.1,0.9-3.4,0.9c-1.8,0-3.2-0.6-4.3-1.8c-1.1-1.2-1.6-2.6-1.6-4.5c0-2.1,0.6-3.7,1.8-5
		c1.2-1.3,2.8-1.9,4.7-1.9c1.1,0,2.1,0.2,2.9,0.6V77c-0.9-0.7-1.9-1-3-1c-1.3,0-2.3,0.4-3.1,1.3c-0.8,0.9-1.3,2.1-1.3,3.6
		c0,1.5,0.4,2.6,1.2,3.5c0.8,0.8,1.8,1.3,3.1,1.3c1.1,0,2.1-0.4,3.1-1.1V86.5z"/>
	<path fill="#FFFFFF" d="M148.7,87.1h-2v-2h0c-0.9,1.5-2.2,2.3-3.8,2.3c-1.3,0-2.3-0.3-3-1c-0.7-0.7-1-1.5-1-2.6
		c0-2.3,1.4-3.7,4.1-4.1l3.7-0.5c0-2.1-0.9-3.2-2.6-3.2c-1.5,0-2.9,0.5-4.1,1.5v-2.1c0.4-0.3,1-0.5,1.8-0.8c0.9-0.3,1.7-0.4,2.5-0.4
		c2.9,0,4.4,1.6,4.4,4.7V87.1z M146.7,80.8l-3,0.4c-1.1,0.2-1.9,0.4-2.3,0.8c-0.4,0.3-0.5,0.9-0.5,1.6c0,0.6,0.2,1.1,0.6,1.5
		c0.4,0.4,1,0.6,1.8,0.6c1,0,1.8-0.3,2.5-1c0.6-0.7,1-1.6,1-2.6V80.8z"/>
	<path fill="#FFFFFF" d="M158.4,87c-0.5,0.3-1.1,0.4-1.9,0.4c-2.2,0-3.3-1.2-3.3-3.7v-7.4h-2.1v-1.7h2.1v-3.1c0.6-0.2,1.3-0.4,2-0.6
		v3.7h3.1v1.7h-3.1v7.1c0,0.8,0.1,1.4,0.4,1.8c0.3,0.4,0.8,0.5,1.4,0.5c0.5,0,0.9-0.1,1.3-0.4V87z"/>
	<path fill="#FFFFFF" d="M163.5,70.1c0,0.4-0.1,0.7-0.4,0.9c-0.3,0.3-0.6,0.4-0.9,0.4c-0.4,0-0.7-0.1-0.9-0.4
		c-0.3-0.2-0.4-0.6-0.4-0.9c0-0.4,0.1-0.7,0.4-0.9c0.3-0.2,0.6-0.4,0.9-0.4c0.4,0,0.7,0.1,0.9,0.4C163.4,69.5,163.5,69.8,163.5,70.1
		z M163.2,87.1h-2V74.6h2V87.1z"/>
	<path fill="#FFFFFF" d="M178.7,80.8c0,2-0.6,3.6-1.7,4.8c-1.1,1.2-2.6,1.8-4.5,1.8c-1.9,0-3.4-0.6-4.5-1.8
		c-1.1-1.2-1.6-2.7-1.6-4.6c0-2.2,0.6-3.9,1.8-5c1.1-1.1,2.6-1.7,4.5-1.7c1.9,0,3.3,0.6,4.4,1.7C178.2,77.2,178.7,78.8,178.7,80.8z
		 M176.6,80.9c0-1.6-0.4-2.8-1.1-3.7c-0.7-0.8-1.7-1.2-2.9-1.2c-1.2,0-2.2,0.4-3,1.2c-0.8,0.9-1.2,2.1-1.2,3.7
		c0,1.5,0.4,2.7,1.1,3.5c0.8,0.8,1.8,1.3,3,1.3c1.3,0,2.3-0.4,3-1.3C176.3,83.6,176.6,82.4,176.6,80.9z"/>
	<path fill="#FFFFFF" d="M192.3,87.1h-2V80c0-2.6-1-4-2.9-4c-1,0-1.8,0.4-2.5,1.1c-0.7,0.7-1,1.7-1,2.8v7.1h-2V74.6h2v2.1h0
		c0.9-1.6,2.3-2.4,4.1-2.4c1.4,0,2.4,0.4,3.1,1.3c0.7,0.9,1.1,2.2,1.1,3.8V87.1z"/>
	<path fill="#FFFFFF" d="M217.5,78.1c0,2.7-0.8,4.8-2.5,6.4c-1.7,1.7-4,2.5-7,2.5h-4.6V69.6h4.8C214.4,69.6,217.5,72.5,217.5,78.1z
		 M215.3,78.2c0-4.5-2.4-6.7-7.1-6.7h-2.7v13.8h2.6c2.3,0,4.1-0.6,5.4-1.8C214.7,82.2,215.3,80.5,215.3,78.2z"/>
	<path fill="#FFFFFF" d="M230.8,81.4h-8.8c0,1.4,0.4,2.5,1.1,3.2c0.7,0.7,1.7,1.1,3,1.1c1.4,0,2.7-0.5,3.9-1.4v1.9
		c-1.1,0.8-2.5,1.2-4.3,1.2c-1.7,0-3.1-0.5-4.1-1.6c-1.1-1.1-1.6-2.8-1.6-4.9c0-2,0.6-3.6,1.7-4.9c1.1-1.2,2.4-1.7,4-1.7
		c1.7,0,3,0.6,3.9,1.7c0.8,1.1,1.3,2.5,1.3,4.3V81.4z M228.7,79.7c0-1.1-0.3-2-0.8-2.7c-0.5-0.7-1.3-1-2.3-1c-0.9,0-1.7,0.3-2.4,1
		c-0.7,0.7-1.1,1.6-1.2,2.6H228.7z"/>
	<path fill="#FFFFFF" d="M243.6,74.6l-5,12.5h-2L232,74.6h2.2l3.2,9.1c0.2,0.7,0.4,1.2,0.4,1.8h0.1c0.1-0.6,0.2-1.2,0.4-1.7l3.3-9.1
		H243.6z"/>
	<path fill="#FFFFFF" d="M255.7,81.4h-8.8c0,1.4,0.4,2.5,1.1,3.2c0.7,0.7,1.7,1.1,3,1.1c1.4,0,2.7-0.5,3.9-1.4v1.9
		c-1.1,0.8-2.5,1.2-4.3,1.2c-1.7,0-3.1-0.5-4.1-1.6c-1.1-1.1-1.6-2.8-1.6-4.9c0-2,0.6-3.6,1.7-4.9c1.1-1.2,2.4-1.7,4-1.7
		c1.7,0,3,0.6,3.9,1.7c0.8,1.1,1.3,2.5,1.3,4.3V81.4z M253.7,79.7c0-1.1-0.3-2-0.8-2.7c-0.5-0.7-1.3-1-2.3-1c-0.9,0-1.7,0.3-2.4,1
		c-0.7,0.7-1.1,1.6-1.2,2.6H253.7z"/>
	<path fill="#FFFFFF" d="M260.8,87.1h-2V68.6h2V87.1z"/>
	<path fill="#FFFFFF" d="M276.3,80.8c0,2-0.6,3.6-1.7,4.8c-1.1,1.2-2.6,1.8-4.5,1.8c-1.9,0-3.4-0.6-4.5-1.8
		c-1.1-1.2-1.6-2.7-1.6-4.6c0-2.2,0.6-3.9,1.8-5c1.1-1.1,2.6-1.7,4.5-1.7c1.9,0,3.3,0.6,4.4,1.7C275.8,77.2,276.3,78.8,276.3,80.8z
		 M274.2,80.9c0-1.6-0.4-2.8-1.1-3.7c-0.7-0.8-1.7-1.2-2.9-1.2c-1.2,0-2.2,0.4-3,1.2c-0.8,0.9-1.2,2.1-1.2,3.7
		c0,1.5,0.4,2.7,1.1,3.5c0.8,0.8,1.8,1.3,3,1.3c1.3,0,2.3-0.4,3-1.3C273.9,83.6,274.2,82.4,274.2,80.9z"/>
	<path fill="#FFFFFF" d="M291,80.5c0,2-0.5,3.7-1.5,4.9c-1,1.3-2.4,2-4.2,2c-1.6,0-2.9-0.7-3.7-2.1h0v7.5h-2V74.6h2v2.2h0
		c1-1.7,2.4-2.5,4.3-2.5c1.7,0,2.9,0.6,3.9,1.8C290.6,77.2,291,78.7,291,80.5z M289,80.5c0-1.4-0.3-2.5-1-3.3
		c-0.6-0.8-1.5-1.2-2.6-1.2c-1.2,0-2.2,0.4-2.9,1.3c-0.7,0.8-1,1.8-1,3V82c0,1,0.3,1.9,1,2.6c0.7,0.7,1.6,1.1,2.6,1.1
		c1.2,0,2.1-0.4,2.8-1.3C288.6,83.4,289,82.1,289,80.5z"/>
	<path fill="#FFFFFF" d="M312,87.1h-2v-7.2c0-1.4-0.2-2.5-0.7-3.1c-0.4-0.6-1.1-0.8-2.1-0.8c-0.9,0-1.6,0.4-2.2,1.2
		s-0.9,1.7-0.9,2.8v7.1h-2v-7.4c0-2.4-0.9-3.7-2.8-3.7c-0.9,0-1.6,0.4-2.1,1.1c-0.6,0.7-0.9,1.7-0.9,2.9v7.1h-2V74.6h2v2h0
		c0.9-1.5,2.2-2.3,3.9-2.3c0.9,0,1.6,0.2,2.3,0.7c0.6,0.5,1,1.1,1.3,1.9c0.9-1.7,2.3-2.6,4.2-2.6c2.8,0,4.1,1.7,4.1,5.1V87.1z"/>
	<path fill="#FFFFFF" d="M325.8,81.4H317c0,1.4,0.4,2.5,1.1,3.2c0.7,0.7,1.7,1.1,3,1.1c1.4,0,2.7-0.5,3.9-1.4v1.9
		c-1.1,0.8-2.5,1.2-4.3,1.2c-1.7,0-3.1-0.5-4.1-1.6c-1.1-1.1-1.6-2.8-1.6-4.9c0-2,0.6-3.6,1.7-4.9c1.1-1.2,2.4-1.7,4-1.7
		c1.7,0,3,0.6,3.9,1.7c0.8,1.1,1.3,2.5,1.3,4.3V81.4z M323.8,79.7c0-1.1-0.3-2-0.8-2.7c-0.5-0.7-1.3-1-2.3-1c-0.9,0-1.7,0.3-2.4,1
		c-0.7,0.7-1.1,1.6-1.2,2.6H323.8z"/>
	<path fill="#FFFFFF" d="M339.3,87.1h-2V80c0-2.6-1-4-2.9-4c-1,0-1.8,0.4-2.5,1.1c-0.7,0.7-1,1.7-1,2.8v7.1h-2V74.6h2v2.1h0
		c0.9-1.6,2.3-2.4,4.1-2.4c1.4,0,2.4,0.4,3.1,1.3c0.7,0.9,1.1,2.2,1.1,3.8V87.1z"/>
	<path fill="#FFFFFF" d="M349,87c-0.5,0.3-1.1,0.4-1.9,0.4c-2.2,0-3.3-1.2-3.3-3.7v-7.4h-2.1v-1.7h2.1v-3.1c0.6-0.2,1.3-0.4,2-0.6
		v3.7h3.1v1.7h-3.1v7.1c0,0.8,0.1,1.4,0.4,1.8c0.3,0.4,0.8,0.5,1.4,0.5c0.5,0,0.9-0.1,1.3-0.4V87z"/>
</g>
</svg>
