<?xml version="1.0" encoding="utf-8"?>
<!-- Generator: Adobe Illustrator 17.0.0, SVG Export Plug-In . SVG Version: 6.00 Build 0)  -->
<!DOCTYPE svg PUBLIC "-//W3C//DTD SVG 1.1//EN" "http://www.w3.org/Graphics/SVG/1.1/DTD/svg11.dtd">
<svg version="1.1" id="Layer_2" xmlns="http://www.w3.org/2000/svg" xmlns:xlink="http://www.w3.org/1999/xlink" x="0px" y="0px"
	 width="90px" height="72px" viewBox="0 0 90 72" enable-background="new 0 0 90 72" xml:space="preserve">
<path fill="#003C56" d="M67.813,12.465h-48.98c-1.942,0-4.516,2.416-4.516,4.162v29.622c0,1.746,2.574,4.162,4.516,4.162h12.891
	v14.032l12.501-14.032h23.587c1.942,0,4.516-2.416,4.516-4.162V16.627C72.328,14.88,69.754,12.465,67.813,12.465z M26.397,37.564
	c-3.66,0-6.628-2.743-6.628-6.127c0-3.384,2.968-6.127,6.628-6.127c3.66,0,6.628,2.743,6.628,6.127
	C33.025,34.821,30.057,37.564,26.397,37.564z M43.323,37.564c-3.66,0-6.628-2.743-6.628-6.127c0-3.384,2.967-6.127,6.628-6.127
	s6.628,2.743,6.628,6.127C49.951,34.821,46.983,37.564,43.323,37.564z M60.249,37.564c-3.66,0-6.628-2.743-6.628-6.127
	c0-3.384,2.967-6.127,6.628-6.127c3.66,0,6.628,2.743,6.628,6.127C66.876,34.821,63.909,37.564,60.249,37.564z"/>
</svg>
