<?xml version="1.0" encoding="utf-8"?>
<!-- Generator: Adobe Illustrator 17.1.0, SVG Export Plug-In . SVG Version: 6.00 Build 0)  -->
<!DOCTYPE svg PUBLIC "-//W3C//DTD SVG 1.1//EN" "http://www.w3.org/Graphics/SVG/1.1/DTD/svg11.dtd">
<svg version="1.1" id="Layer_2" xmlns="http://www.w3.org/2000/svg" xmlns:xlink="http://www.w3.org/1999/xlink" x="0px" y="0px"
	 viewBox="0 0 419.7 424.1" enable-background="new 0 0 419.7 424.1" xml:space="preserve">
<g>
	
		<radialGradient id="SVGID_1_" cx="179.3715" cy="273.2225" r="180.063" fx="147.4044" fy="325.1168" gradientTransform="matrix(0.9579 -0.2872 0.2428 0.8098 -58.7771 103.4903)" gradientUnits="userSpaceOnUse">
		<stop  offset="0" style="stop-color:#CCADCC"/>
		<stop  offset="0.5768" style="stop-color:#E5D1E3"/>
		<stop  offset="0.9686" style="stop-color:#F2E4EF"/>
	</radialGradient>
	<path fill="url(#SVGID_1_)" d="M350.5,230c0,95.3-63,172.6-140.7,172.6c-77.7,0-140.7-77.3-140.7-172.6S133,15.7,210.7,15.7
		C288.4,15.7,350.5,134.7,350.5,230z"/>
	<path fill="#A96599" d="M103.9,98.9h212.6c-2.4-4.6-5-9-7.7-13.4H111.7C109,89.8,106.4,94.3,103.9,98.9z"/>
	<path fill="#B6C3CE" d="M96.6,113.3h227.1c-1.4-3-2.8-5.9-4.2-8.8H100.9C99.4,107.4,98,110.3,96.6,113.3z"/>
	<path fill="#A96599" d="M69.1,230c0,7.5,0.4,14.9,1.1,22.1h279.2c0.7-7.2,1.1-14.6,1.1-22.1c0-2.4,0-4.8-0.1-7.2H69.2
		C69.1,225.2,69.1,227.6,69.1,230z"/>
	<path fill="#5DACCB" d="M105.3,345.6h209c1.6-2.2,3.2-4.4,4.7-6.7H100.6C102.2,341.2,103.7,343.4,105.3,345.6z"/>
	<path fill="#5BACCB" d="M94.1,161.7c4.6-9.7,1.8-18.5,9.8-18.1c8,0.5,25.1,10.2,35.8,19.3c11.7,9.1,17,17.6,24,17.6
		c14.6-0.4,30.7-33.6,46.2-33.5c15.5-0.1,31.6,33.2,46.2,33.5c7,0,12.3-8.4,24-17.6c10.7-9,27.7-18.7,35.8-19.3
		c8.1-0.5,5.9,8.3,10.8,18c3.3,8.5,12.2,17.8,19.2,20c-0.9-4.5-1.8-9-2.9-13.4c-5-3.1-8.7-10.9-8.8-18.3c-0.5-4,0.1-7.8,0.2-10.9
		c-0.7-2-1.4-4-2.2-6c-0.8-0.4-2-0.5-3.5-0.4c-9,0.7-30.3,10.6-44,19.8c-14.8,9.3-21.9,17.9-28.8,17.9
		c-13.3-0.2-27.4-33.3-45.8-33.2c-18.4-0.1-32.5,33.1-45.8,33.2c-6.9,0-14-8.7-28.8-17.9c-13.7-9.2-35-19.1-44-19.8
		c-1.2-0.1-2.2,0-3,0.3c-0.8,2-1.5,4-2.2,5.9c0.3,3.1,1.1,7.1,0.7,11.2c0.1,7.6-3.8,15.7-9.7,18.5c-1.1,4.4-2.1,8.8-2.9,13.2
		C82,179.7,91,170.4,94.1,161.7z M347.5,191.9c-7.2-4.2-16.3-11.2-20.4-16.4c-9.9-11.1-11.5-20.6-20.5-20.2
		c-9.1,0.4-23.4,10.4-31.6,20.2c-6.2,6.9-11.8,15.8-16.5,15.7c-4.9-0.1-16.3-9.3-22.4-15.8c-9.2-9.4-17.2-18.1-26.3-18.1
		c-9.1,0-17,8.7-26.3,18.1c-6.2,6.5-17.5,15.6-22.4,15.8c-4.7,0.1-10.3-8.8-16.5-15.7c-8.2-9.8-22.5-19.8-31.6-20.2
		c-8.8-0.4-9.7,8.1-18.5,18.9c-4.7,6.5-14.6,14.1-22.4,18.2c-0.8,4.9-1.4,9.8-1.9,14.6c9.2-4.3,17.9-9.1,24.3-13.6
		c11.7-7.6,19.9-16.4,23.7-16.4c4.6,0,11.5,9.7,14.2,16.3c4.2,9.7,6.8,18.2,18,17.8c11.2-0.4,27.5-9.7,38.4-19.1
		c8-6.5,16.6-15.3,20.9-15.4c4.3,0,12.9,8.8,20.9,15.4c10.9,9.4,27.2,18.7,38.4,19.1c11.2,0.4,13.8-8.1,18-17.8
		c2.6-6.6,9.6-16.3,14.2-16.3c4,0,14,10,27,17.9c6,3.9,13.4,7.9,21,11.6C348.9,201.7,348.2,196.8,347.5,191.9z"/>
	<g>
		<path fill="#ED8466" d="M178.9,55.4c-2.4,0-4.3,1.9-4.3,4.3c0,2.4,1.9,4.3,4.3,4.3c2.4,0,4.3-1.9,4.3-4.3
			C183.3,57.4,181.3,55.4,178.9,55.4z M163.5,70.2c-2.4,0-4.3,1.9-4.3,4.3c0,2.4,1.9,4.3,4.3,4.3c2.4,0,4.3-1.9,4.3-4.3
			C167.8,72.2,165.9,70.2,163.5,70.2z M194.4,70.2c-2.4,0-4.3,1.9-4.3,4.3c0,2.4,1.9,4.3,4.3,4.3c2.4,0,4.3-1.9,4.3-4.3
			C198.7,72.2,196.8,70.2,194.4,70.2z M148.1,55.4c-2.4,0-4.3,1.9-4.3,4.3c0,2.4,1.9,4.3,4.3,4.3c2.4,0,4.3-1.9,4.3-4.3
			C152.4,57.4,150.5,55.4,148.1,55.4z M132.7,70.2c-2.4,0-4.3,1.9-4.3,4.3c0,2.4,1.9,4.3,4.3,4.3c2.4,0,4.3-1.9,4.3-4.3
			C137,72.2,135,70.2,132.7,70.2z M225.2,70.2c-2.4,0-4.3,1.9-4.3,4.3c0,2.4,1.9,4.3,4.3,4.3c2.4,0,4.3-1.9,4.3-4.3
			C229.6,72.2,227.6,70.2,225.2,70.2z M240.7,55.4c-2.4,0-4.3,1.9-4.3,4.3c0,2.4,1.9,4.3,4.3,4.3c2.4,0,4.3-1.9,4.3-4.3
			C245,57.4,243.1,55.4,240.7,55.4z M209.8,55.4c-2.4,0-4.3,1.9-4.3,4.3c0,2.4,1.9,4.3,4.3,4.3c2.4,0,4.3-1.9,4.3-4.3
			C214.1,57.4,212.2,55.4,209.8,55.4z M287,70.2c-2.4,0-4.3,1.9-4.3,4.3c0,2.4,1.9,4.3,4.3,4.3c2.4,0,4.3-1.9,4.3-4.3
			C291.3,72.2,289.4,70.2,287,70.2z M256.1,70.2c-2.4,0-4.3,1.9-4.3,4.3c0,2.4,1.9,4.3,4.3,4.3c2.4,0,4.3-1.9,4.3-4.3
			C260.4,72.2,258.5,70.2,256.1,70.2z M271.5,55.4c-2.4,0-4.3,1.9-4.3,4.3c0,2.4,1.9,4.3,4.3,4.3c2.4,0,4.3-1.9,4.3-4.3
			C275.9,57.4,273.9,55.4,271.5,55.4z"/>
		<path fill="#ED8466" d="M188.9,280.6c-3.2,0-5.9,2.6-5.9,5.9c0,3.2,2.6,5.9,5.9,5.9c3.2,0,5.9-2.6,5.9-5.9
			C194.8,283.2,192.2,280.6,188.9,280.6z M168.1,260.5c-3.2,0-5.9,2.6-5.9,5.9c0,3.2,2.6,5.9,5.9,5.9c3.2,0,5.9-2.6,5.9-5.9
			C173.9,263.2,171.3,260.5,168.1,260.5z M147.2,280.6c-3.2,0-5.9,2.6-5.9,5.9c0,3.2,2.6,5.9,5.9,5.9c3.2,0,5.9-2.6,5.9-5.9
			C153,283.2,150.4,280.6,147.2,280.6z M84.6,260.5c-3.2,0-5.9,2.6-5.9,5.9c0,3.2,2.6,5.9,5.9,5.9c3.2,0,5.9-2.6,5.9-5.9
			C90.4,263.2,87.8,260.5,84.6,260.5z M105.4,280.6c-3.2,0-5.9,2.6-5.9,5.9c0,3.2,2.6,5.9,5.9,5.9c3.2,0,5.9-2.6,5.9-5.9
			C111.3,283.2,108.7,280.6,105.4,280.6z M126.3,260.5c-3.2,0-5.9,2.6-5.9,5.9c0,3.2,2.6,5.9,5.9,5.9c3.2,0,5.9-2.6,5.9-5.9
			C132.2,263.2,129.5,260.5,126.3,260.5z M272.4,280.6c-3.2,0-5.9,2.6-5.9,5.9c0,3.2,2.6,5.9,5.9,5.9c3.2,0,5.9-2.6,5.9-5.9
			C278.3,283.2,275.7,280.6,272.4,280.6z M335.1,260.5c-3.2,0-5.9,2.6-5.9,5.9c0,3.2,2.6,5.9,5.9,5.9c3.2,0,5.9-2.6,5.9-5.9
			C340.9,263.2,338.3,260.5,335.1,260.5z M293.3,260.5c-3.2,0-5.9,2.6-5.9,5.9c0,3.2,2.6,5.9,5.9,5.9c3.2,0,5.9-2.6,5.9-5.9
			C299.2,263.2,296.6,260.5,293.3,260.5z M209.8,260.5c-3.2,0-5.9,2.6-5.9,5.9c0,3.2,2.6,5.9,5.9,5.9c3.2,0,5.9-2.6,5.9-5.9
			C215.7,263.2,213,260.5,209.8,260.5z M314.2,280.6c-3.2,0-5.9,2.6-5.9,5.9c0,3.2,2.6,5.9,5.9,5.9c3.2,0,5.9-2.6,5.9-5.9
			C320,283.2,317.4,280.6,314.2,280.6z M230.7,280.6c-3.2,0-5.9,2.6-5.9,5.9c0,3.2,2.6,5.9,5.9,5.9c3.2,0,5.9-2.6,5.9-5.9
			C236.5,283.2,233.9,280.6,230.7,280.6z M251.6,260.5c-3.2,0-5.9,2.6-5.9,5.9c0,3.2,2.6,5.9,5.9,5.9c3.2,0,5.9-2.6,5.9-5.9
			C257.4,263.2,254.8,260.5,251.6,260.5z"/>
	</g>
</g>
<g opacity="0.3">
	<g>
		<g>
			<g>
				<path fill="#001A33" d="M345.1,116.3c-0.5-0.3-13.6-7.2-36.8-14.1c-21.3-6.3-55.6-13.9-98-13.9c-42.4,0-76.7,7.6-98,13.9
					c-23.2,6.9-36.2,13.8-36.8,14.1c-1.9,1-2.9,3.1-2.6,5.1l26,172.5c0.1,0.6,0.3,1.2,0.6,1.7c0.3,0.6,8.4,14.9,26,31.2
					c16.2,15,43.8,34.6,83.8,42.6c0.3,0.1,0.7,0.1,1,0.1c0.3,0,0.7,0,1-0.1c39.9-8.1,67.6-27.7,83.8-42.6
					c17.6-16.3,25.7-30.6,26.1-31.2c0.3-0.5,0.5-1.1,0.6-1.7l26-172.5C348,119.3,347,117.2,345.1,116.3z"/>
			</g>
		</g>
	</g>
</g>
<g>
	<g>
		<g>
			<g>
				<defs>
					<rect id="SVGID_2_" x="76.7" y="91.7" width="267.2" height="273.5"/>
				</defs>
				<clipPath id="SVGID_3_">
					<use xlink:href="#SVGID_2_"  overflow="visible"/>
				</clipPath>
				<path clip-path="url(#SVGID_3_)" fill="#414042" d="M210.3,362.7c-0.2,0-0.3,0-0.5,0c-38.3-7.7-64.8-26.5-80.3-40.9
					c-16.8-15.6-24.5-29.2-24.8-29.8c-0.1-0.3-0.2-0.5-0.3-0.8L79.2,123.5c-0.2-1,0.4-2,1.3-2.5c0.5-0.3,51.5-26.9,129.8-26.9
					c78.4,0,129.4,26.6,129.9,26.9c0.9,0.5,1.4,1.5,1.3,2.5l-25.3,167.7c0,0.3-0.1,0.6-0.3,0.8c-0.3,0.6-8,14.2-24.9,29.8
					c-15.5,14.4-42,33.1-80.3,40.9C210.6,362.7,210.4,362.7,210.3,362.7L210.3,362.7z"/>
			</g>
		</g>
		<g>
			<g>
				<defs>
					<rect id="SVGID_4_" x="76.7" y="91.7" width="267.2" height="273.5"/>
				</defs>
				<clipPath id="SVGID_5_">
					<use xlink:href="#SVGID_4_"  overflow="visible"/>
				</clipPath>
				<path clip-path="url(#SVGID_5_)" fill="#C8CACC" d="M210.3,91.7c-41.2,0-74.5,7.3-95.2,13.5c-22.5,6.7-35.2,13.4-35.7,13.7
					c-1.8,1-2.8,3-2.5,5L102,291.6c0.1,0.6,0.3,1.1,0.6,1.6c0.3,0.6,8.2,14.5,25.3,30.4c15.7,14.6,42.6,33.6,81.4,41.5
					c0.3,0.1,0.6,0.1,1,0.1c0.3,0,0.6,0,1-0.1c38.8-7.9,65.7-26.9,81.5-41.5c17.1-15.9,25-29.8,25.3-30.4c0.3-0.5,0.5-1.1,0.6-1.6
					l25.3-167.7c0.3-2-0.7-4-2.5-5c-0.5-0.3-13.2-7-35.8-13.7C284.8,99,251.5,91.7,210.3,91.7L210.3,91.7L210.3,91.7z M210.3,96.5
					c78.7,0,128.8,26.6,128.8,26.6l-25.3,167.7c0,0-30.5,54.7-103.5,69.4c-73-14.8-103.5-69.4-103.5-69.4L81.6,123.1
					C81.6,123.1,131.6,96.5,210.3,96.5"/>
			</g>
		</g>
	</g>
	<path fill="#4BBBEB" d="M292.2,290.9c0,0-8.9,42.5-81.9,57.3c-73-14.8-81.8-57.3-81.8-57.3L89.7,128.5c0,0,41.9-26.6,120.6-26.6
		c78.7,0,120.7,26.6,120.7,26.6L292.2,290.9L292.2,290.9z"/>
	<path fill="#FFFFFF" d="M106.8,135c6.3-2.7,40.3-15.6,103.6-15.6c63.4,0,97.1,13,103.3,15.6l-8.3,153.7c-7.3-1.3-34.5-5.4-95.1-5.4
		c-60.6,0-87.9,4.1-95.3,5.4L106.8,135L106.8,135z"/>
	<path fill="#77787B" d="M210.4,117.6c-71.5,0-105.4,16.3-105.4,16.3l8.5,157c0,0,25.4-5.8,96.9-5.8c71.5,0,96.7,5.8,96.7,5.8
		l8.5-157C315.6,133.9,281.9,117.6,210.4,117.6L210.4,117.6L210.4,117.6z M210.4,121.2c59.8,0,93.1,11.6,101.5,15l-8.1,150.4
		c-9.7-1.6-37.3-5.1-93.4-5.1c-56.1,0-83.9,3.5-93.6,5.1l-8.1-150.4C117.1,132.8,150.5,121.2,210.4,121.2"/>
	<path fill="#FFFFFF" d="M180.2,310.6h6.1h0c0.2,0,0.5,0,0.9-0.1c0.4-0.1,0.7-0.3,1-0.6c0.3-0.3,0.6-0.7,0.9-1.3
		c0.2-0.6,0.4-1.3,0.4-2.3c0-0.7-0.1-1.3-0.3-1.8c-0.2-0.5-0.4-0.8-0.7-1c-0.3-0.2-0.6-0.4-0.9-0.5c-0.3-0.1-0.6-0.1-0.9-0.1h-6.4
		L180.2,310.6L180.2,310.6z M180.2,321.2h-4.8V298h11.2c0.8,0,1.6,0.1,2.5,0.4c0.9,0.3,1.7,0.8,2.4,1.4c0.7,0.7,1.4,1.5,1.9,2.6
		c0.5,1.1,0.8,2.3,0.8,3.9c0,3-0.9,5.3-2.6,6.9c-0.5,0.5-1.1,1-1.7,1.3c-0.6,0.3-1.1,0.5-1.7,0.7c-0.5,0.1-1,0.2-1.3,0.3
		c-0.4,0-0.6,0-0.7,0h-6V321.2L180.2,321.2z"/>
	<path fill="#FFFFFF" d="M208.8,310.7c0.3,0,0.6,0,1-0.1c0.4-0.1,0.8-0.2,1.2-0.4c0.4-0.2,0.7-0.5,1-0.9c0.3-0.4,0.4-1,0.4-1.7
		c0-1.1-0.1-2-0.4-2.6c-0.3-0.6-0.6-1.1-1-1.4c-0.4-0.3-0.8-0.5-1.2-0.6c-0.4-0.1-0.7-0.1-0.9-0.1h-5.7v8L208.8,310.7L208.8,310.7z
		 M215,312.9c0.6,0.5,1.1,1.2,1.6,1.8c0.4,0.7,0.8,1.4,1.1,2.1c0.3,0.7,0.5,1.5,0.6,2.2c0.1,0.7,0.2,1.4,0.2,2.1h-2.4h-2.4
		c0-0.2,0-0.4,0-0.7c0-0.3-0.1-0.7-0.2-1.2c-0.1-0.4-0.3-0.9-0.5-1.3c-0.2-0.4-0.5-0.9-0.9-1.2c-0.4-0.4-0.8-0.7-1.4-0.9
		c-0.5-0.2-1.2-0.3-2-0.3h-5.7v5.7h-4.7V298h10.4c0.1,0,0.3,0,0.7,0c0.4,0,0.8,0.1,1.4,0.3c0.5,0.2,1.1,0.4,1.8,0.7
		c0.6,0.3,1.2,0.8,1.8,1.4c1.7,1.7,2.6,4.1,2.6,7.2c0,1.2-0.2,2.2-0.6,3.1C216.1,311.6,215.6,312.3,215,312.9L215,312.9z"/>
	<path fill="#FFFFFF" d="M233.6,302.7c-0.9,0-1.8,0.2-2.6,0.5c-0.8,0.4-1.5,0.8-2.1,1.5c-0.6,0.6-1.1,1.3-1.4,2.2
		c-0.4,0.8-0.5,1.7-0.5,2.7c0,0.9,0.2,1.8,0.5,2.6c0.4,0.8,0.8,1.5,1.4,2.2c0.6,0.6,1.3,1.1,2.1,1.5c0.8,0.4,1.7,0.5,2.6,0.5
		c0.9,0,1.8-0.2,2.6-0.5c0.8-0.4,1.5-0.8,2.2-1.5c0.6-0.6,1.1-1.3,1.5-2.2c0.4-0.8,0.5-1.7,0.5-2.6c0-0.9-0.2-1.8-0.5-2.7
		c-0.4-0.8-0.9-1.5-1.5-2.2c-0.6-0.6-1.3-1.1-2.2-1.5C235.4,302.9,234.5,302.7,233.6,302.7L233.6,302.7z M233.6,321.1
		c-1.6,0-3.1-0.3-4.5-0.9c-1.4-0.6-2.6-1.4-3.7-2.5c-1-1.1-1.9-2.3-2.5-3.7c-0.6-1.4-0.9-2.9-0.9-4.5c0-1.6,0.3-3.1,0.9-4.5
		c0.6-1.4,1.4-2.6,2.5-3.7c1-1,2.3-1.9,3.7-2.5c1.4-0.6,2.9-0.9,4.5-0.9c1.6,0,3.1,0.3,4.5,0.9c1.4,0.6,2.6,1.4,3.7,2.5
		c1,1.1,1.9,2.3,2.5,3.7c0.6,1.4,0.9,2.9,0.9,4.5c0,1.6-0.3,3.1-0.9,4.5c-0.6,1.4-1.4,2.6-2.5,3.7c-1,1.1-2.3,1.9-3.7,2.5
		C236.7,320.8,235.2,321.1,233.6,321.1L233.6,321.1z"/>
	<path fill="#333132" d="M157.8,177.4v-22.6l-15.5,1.8l1.6,95.4l13.9-1.2v-21.4l16.5-1.5v28c0,5.9-5.1,10.2-11,10.8l-24.9,2.2
		c-5.9,0.3-11-4.9-11-10.8l-1.6-106.3c0-5.9,5-10,11-11l26.5-3.2c6.3-0.6,11,5.1,11,11v27.3L157.8,177.4L157.8,177.4z"/>
	<path fill="#333132" d="M202.5,226.5v22.1h13.9v-42.3H197c-6.4,0-11-5.3-11-10.8V147c0-6.4,4.4-11,11-11h24.9c6.2,0,11,4.6,11,10.8
		v26.9h-16.5v-21.2h-13.9v37.3h19.4c6.2,0,11,5.1,11,11v53.5c0,5.9-4.9,10.8-11,10.8H197c-5.9,0-11-4.9-11-10.8v-27.8L202.5,226.5
		L202.5,226.5z"/>
	<path fill="#333132" d="M277.8,177.7l0.5-21l-15.5-1.8v96l13,1.2l0.9-29.1l-5.3-0.6V206l22,2.1l-1.3,50.1c0,5.9-5,11.3-11,10.8
		l-23.8-2.2c-6-0.7-11-4.9-11-10.8V148.7c0-5.9,5.1-11.6,11-11l26.5,3.2c6,0.7,11,5.1,11,11l-0.7,27.3L277.8,177.7L277.8,177.7z"/>
</g>
</svg>
