<?xml version="1.0" encoding="utf-8"?>
<!-- Generator: Adobe Illustrator 17.0.0, SVG Export Plug-In . SVG Version: 6.00 Build 0)  -->
<!DOCTYPE svg PUBLIC "-//W3C//DTD SVG 1.1//EN" "http://www.w3.org/Graphics/SVG/1.1/DTD/svg11.dtd">
<svg version="1.1" id="Layer_1" xmlns="http://www.w3.org/2000/svg" xmlns:xlink="http://www.w3.org/1999/xlink" x="0px" y="0px"
	 width="85.611px" height="78.167px" viewBox="0 0 85.611 78.167" enable-background="new 0 0 85.611 78.167" xml:space="preserve">
<path fill="#7F7F7F" d="M73.611,0H12C5.373,0,0,5.373,0,12v41.25c0,6.627,5.373,12,12,12h42.111l24.111,12.917L73.041,65.25h0.57
	c6.627,0,12-5.373,12-12V12C85.611,5.373,80.239,0,73.611,0z M25.702,44.723c2.196-5.741,6.179-10.179,11.033-12.195
	c-2.358-1.78-3.888-4.596-3.888-7.778c0-5.385,4.365-9.75,9.75-9.75c5.385,0,9.75,4.365,9.75,9.75c0,3.182-1.531,5.998-3.888,7.778
	c4.814,2,8.772,6.382,10.979,12.054L25.702,44.723z"/>
</svg>
