<?xml version="1.0" encoding="utf-8"?>
<!-- Generator: Adobe Illustrator 17.0.0, SVG Export Plug-In . SVG Version: 6.00 Build 0)  -->
<!DOCTYPE svg PUBLIC "-//W3C//DTD SVG 1.1//EN" "http://www.w3.org/Graphics/SVG/1.1/DTD/svg11.dtd">
<svg version="1.1" id="feed_icon" xmlns="http://www.w3.org/2000/svg" xmlns:xlink="http://www.w3.org/1999/xlink" x="0px" y="0px"
	 width="103.405px" height="102.736px" viewBox="0 0 103.405 102.736" enable-background="new 0 0 103.405 102.736"
	 xml:space="preserve">
<g>
	<g>
		<path fill="#7F7F7F" d="M35.324,35.653c8.346,0,16.189,3.263,22.085,9.187c5.904,5.932,9.156,13.829,9.156,22.236h12.857
			c0-24.416-19.783-44.281-44.099-44.281V35.653z"/>
	</g>
	<g>
		<path fill="#7F7F7F" d="M35.343,12.858c29.74,0,53.937,24.328,53.937,54.23h12.858C102.138,30.096,72.173,0,35.343,0V12.858z"/>
	</g>
	<g>
		<path fill="#7F7F7F" d="M56.096,73.452c0,8.048-2.738,14.939-8.212,20.677c-5.476,5.738-12.07,8.607-19.787,8.607
			c-7.783,0-14.412-2.852-19.886-8.558C2.736,88.475,0,81.564,0,73.452V32.196c0-2.77,0.829-4.913,2.487-6.431
			c1.659-1.517,3.616-2.275,5.873-2.275c2.255,0,4.212,0.76,5.871,2.28c1.659,1.52,2.489,3.667,2.489,6.44v41.322
			c0,3.37,1.116,6.227,3.349,8.572c2.232,2.345,4.925,3.517,8.079,3.517c3.086,0,5.761-1.175,8.027-3.527
			c2.266-2.352,3.399-5.216,3.399-8.596c0-3.377-1.039-5.994-3.116-7.85c-2.078-1.855-4.897-2.782-8.459-2.782
			c-2.572,0-4.618-0.891-6.134-2.672c-1.385-1.516-2.078-3.429-2.078-5.737c0-2.242,0.725-4.205,2.177-5.887
			c1.45-1.682,3.463-2.522,6.035-2.522c8.177,0,14.905,2.557,20.183,7.667C53.458,58.827,56.096,65.406,56.096,73.452z"/>
	</g>
</g>
</svg>
