<?xml version="1.0" encoding="utf-8"?>
<!-- Generator: Adobe Illustrator 17.0.0, SVG Export Plug-In . SVG Version: 6.00 Build 0)  -->
<!DOCTYPE svg PUBLIC "-//W3C//DTD SVG 1.1//EN" "http://www.w3.org/Graphics/SVG/1.1/DTD/svg11.dtd">
<svg version="1.1" id="Layer_1" xmlns="http://www.w3.org/2000/svg" xmlns:xlink="http://www.w3.org/1999/xlink" x="0px" y="0px"
	 width="211.921px" height="195.289px" viewBox="0 0 211.921 195.289" enable-background="new 0 0 211.921 195.289"
	 xml:space="preserve">
<g>
	<g id="ypddPS_1_">
		<g>
			<path fill="#7F7F7F" d="M26.118,82.209c-1.245-7.405-2.718-14.066-3.331-20.805c-0.256-2.814,0.484-6.464,2.196-8.583
				c7.634-9.454,15.646-18.616,23.854-27.58c1.718-1.876,4.73-3.078,7.334-3.552c27.303-4.97,54.646-9.725,81.976-14.549
				c12.437-2.195,24.877-4.374,37.303-6.631c8.747-1.589,11.661,0.303,13.171,8.927c7.68,43.867,15.34,87.738,23.002,131.609
				c2.043,11.696-6.595,24.216-18.896,26.666c-16.784,3.343-33.637,6.35-50.485,9.364c-33.203,5.939-66.437,11.708-99.63,17.704
				c-13.887,2.509-25.194-4.36-27.822-18.24c-5.162-27.266-9.868-54.618-14.652-81.954c-0.852-4.865,2.342-8.326,8.14-9.351
				C13.99,84.223,19.717,83.291,26.118,82.209z M59.483,32.689c1.055,5.99,2.058,11.647,3.048,17.307
				c0.97,5.549,0.17,6.791-5.385,7.824c-6.209,1.154-12.41,2.494-18.677,3.133c-3.967,0.405-4.091,2.318-3.554,5.307
				C39.79,93.403,44.962,120.5,49.33,147.726c1.752,10.918,6.377,21.706,2.781,33.413c1.338-0.143,2.314-0.189,3.269-0.357
				c18.161-3.211,36.32-6.438,54.48-9.657c25.034-4.437,50.094-8.731,75.092-13.361c13.643-2.527,16.557-7.3,14.167-20.945
				c-5.19-29.629-10.26-59.278-15.417-88.913c-2.07-11.897-4.237-23.777-6.42-36C137.939,18.848,99.042,25.71,59.483,32.689z
				 M41.352,182.163c4.91-4.215,4.95-8.877,4.091-13.772c-2.902-16.524-5.792-33.051-8.727-49.569
				c-1.97-11.089-4.009-22.167-6.051-33.435c-2.192,0.418-3.91,0.745-6.15,1.172C30.104,118.298,35.652,149.798,41.352,182.163z
				 M10.785,88.761c0.399,2.031,0.673,3.307,0.898,4.59c4.68,26.657,9.357,53.315,14.03,79.974
				c0.808,4.609,2.938,8.124,8.223,10.212c-5.7-32.303-11.255-63.78-16.873-95.619C14.804,88.222,13.058,88.456,10.785,88.761z
				 M39.637,53.186c5.903-1.115,10.481-1.98,15.279-2.887c-0.804-4.11-1.48-7.566-2.337-11.945
				C48.188,43.387,44.434,47.688,39.637,53.186z"/>
		</g>
	</g>
	<g>
		
			<rect x="58.21" y="55.633" transform="matrix(0.9847 -0.174 0.174 0.9847 -10.8207 20.6044)" fill="#7F7F7F" width="107.812" height="32.78"/>
		
			<rect x="64.58" y="104.739" transform="matrix(0.9847 -0.174 0.174 0.9847 -17.4256 18.5675)" fill="#7F7F7F" width="65.231" height="7.879"/>
		<g>
			<path fill="#7F7F7F" d="M167.209,96.798l6.129,34.692l-24.063,4.251l-6.129-34.692L167.209,96.798 M170.452,92.163l-31.941,5.643
				l7.521,42.57l31.941-5.643L170.452,92.163L170.452,92.163z"/>
		</g>
		
			<rect x="67.536" y="121.976" transform="matrix(0.9847 -0.174 0.174 0.9847 -20.3793 19.3446)" fill="#7F7F7F" width="65.231" height="7.879"/>
		
			<rect x="70.868" y="139.585" transform="matrix(0.9847 -0.174 0.174 0.9847 -23.3922 20.1929)" fill="#7F7F7F" width="65.231" height="7.879"/>
	</g>
</g>
</svg>
