<?xml version="1.0" encoding="utf-8"?>
<!-- Generator: Adobe Illustrator 17.0.0, SVG Export Plug-In . SVG Version: 6.00 Build 0)  -->
<!DOCTYPE svg PUBLIC "-//W3C//DTD SVG 1.1//EN" "http://www.w3.org/Graphics/SVG/1.1/DTD/svg11.dtd">
<svg version="1.1" id="Layer_2" xmlns="http://www.w3.org/2000/svg" xmlns:xlink="http://www.w3.org/1999/xlink" x="0px" y="0px"
	 width="90px" height="90px" viewBox="0 0 90 90" enable-background="new 0 0 90 90" xml:space="preserve">
<g>
	<path fill="none" d="M68.871,24.058h-51c-0.552,0-1,0.448-1,1V52.5c0,0.552,0.448,1,1,1h51c0.552,0,1-0.448,1-1V25.058
		C69.871,24.505,69.423,24.058,68.871,24.058z M67.867,50.58c0,0.531-0.439,0.962-0.981,0.962h-46.83
		c-0.542,0-0.981-0.431-0.981-0.962V26.712c0-0.531,0.439-0.962,0.981-0.962h46.83c0.542,0,0.981,0.431,0.981,0.962V50.58z"/>
	<path fill="#003C56" d="M66.786,25.75h-46.83c-0.542,0-0.981,0.431-0.981,0.962V50.58c0,0.531,0.439,0.962,0.981,0.962h46.83
		c0.542,0,0.981-0.431,0.981-0.962V26.712C67.766,26.181,67.327,25.75,66.786,25.75z"/>
	<path fill="#003C56" d="M69.871,21.058h-53c-0.552,0-3,2.448-3,3V53.5c0,0.552,2.448,3,3,3h23.167v7.345h-7.691
		c-0.552,0-1,0.448-1,1v1.093c0,0.552,0.448,1,1,1h22.049c0.552,0,1-0.448,1-1v-1.093c0-0.552-0.448-1-1-1h-7.691V56.5h23.167
		c0.552,0,3-2.448,3-3V24.058C72.871,23.505,70.423,21.058,69.871,21.058z M69.871,52.5c0,0.552-0.448,1-1,1h-51
		c-0.552,0-1-0.448-1-1V25.058c0-0.552,0.448-1,1-1h51c0.552,0,1,0.448,1,1V52.5z"/>
</g>
</svg>
