<?xml version="1.0" encoding="utf-8"?>
<!-- Generator: Adobe Illustrator 17.0.0, SVG Export Plug-In . SVG Version: 6.00 Build 0)  -->
<!DOCTYPE svg PUBLIC "-//W3C//DTD SVG 1.1//EN" "http://www.w3.org/Graphics/SVG/1.1/DTD/svg11.dtd">
<svg version="1.1" id="Layer_2" xmlns="http://www.w3.org/2000/svg" xmlns:xlink="http://www.w3.org/1999/xlink" x="0px" y="0px"
	 width="90px" height="72px" viewBox="0 0 90 72" enable-background="new 0 0 90 72" xml:space="preserve">
<g>
	<path fill="#003C56" d="M68.999,17.78h-50.98c-1.942,0-3.516,1.416-3.516,3.162v31.622c0,1.746,1.574,3.162,3.516,3.162H31.91
		h12.501h24.587c1.942,0,3.516-1.416,3.516-3.162V20.942C72.515,19.196,70.941,17.78,68.999,17.78z M43.509,48.761
		c-6.632,0-12.008-5.376-12.008-12.008c0-6.632,5.376-12.008,12.008-12.008s12.008,5.376,12.008,12.008
		C55.517,43.385,50.141,48.761,43.509,48.761z"/>
	<polygon fill="#003C56" points="42.537,31.466 45.767,35.477 37.092,35.477 37.092,37.81 45.762,37.81 42.537,41.821 
		45.843,41.821 50.412,36.644 45.843,31.466 	"/>
</g>
</svg>
